<svg width="36" height="36" viewBox="0 0 36 36" fill="none" xmlns="http://www.w3.org/2000/svg">
<circle cx="18" cy="18" r="17.5714" fill="#FFFAF9"/>
<circle cx="18" cy="18" r="17.5714" fill="url(#paint0_linear_2288_894)" fill-opacity="0.28"/>
<circle cx="18" cy="18" r="17.5714" stroke="url(#paint1_linear_2288_894)" stroke-width="0.857143"/>
<g clip-path="url(#clip0_2288_894)">
<path d="M13.4589 15.0064C14.1707 15.0064 14.7478 14.4294 14.7478 13.7176C14.7478 13.0057 14.1707 12.4287 13.4589 12.4287C12.7471 12.4287 12.1701 13.0057 12.1701 13.7176C12.1701 14.4294 12.7471 15.0064 13.4589 15.0064Z" fill="#303231"/>
<path d="M24.2784 11.7042L23.9574 11.3729C23.7475 11.1564 23.4018 11.151 23.1853 11.3609L21.499 12.9952C21.2966 13.1913 21.2787 13.5061 21.4486 13.7231C21.2837 13.8804 18.066 16.9503 17.7462 17.2554C17.6563 17.1978 17.5508 17.162 17.4365 17.1574L15.3279 17.0717L13.5723 16.019L15.0991 16.4718C15.0991 15.8859 14.683 15.5417 14.2285 15.5417H12.6758C12.195 15.5417 11.8052 15.9316 11.8052 16.4124L11.1306 22.133C11.1037 22.3286 11.2559 22.5029 11.4531 22.5029H11.8008L11.7899 26.3946C11.7887 26.8067 12.1218 27.1418 12.534 27.1429C12.5347 27.1429 12.5354 27.1429 12.5362 27.1429C12.9473 27.1429 13.2812 26.8102 13.2824 26.3988L13.2934 22.5029H13.6199L13.6202 26.3967C13.6203 26.8088 13.9544 27.1429 14.3666 27.1429C14.7787 27.1429 15.1128 26.8088 15.1128 26.3966L15.1125 22.5029H15.3662C15.5612 22.5029 15.7127 22.3323 15.6894 22.1385L15.2983 18.8834L15.096 18.8752C14.8938 18.8669 14.7084 18.8843 14.5325 18.7068C14.3547 18.5265 13.0993 17.2543 12.9328 17.0856L14.8245 18.2199C14.9138 18.2735 15.0151 18.3037 15.1191 18.308L16.5808 18.3674C16.4382 18.5034 16.4574 18.6731 16.554 18.7743C16.6592 18.8846 16.8339 18.8887 16.9442 18.7835L17.3477 18.3986C17.7643 18.4155 18.0198 18.1245 18.0328 17.804C18.0336 17.7842 18.0332 17.7648 18.0322 17.7455C18.1698 17.6142 21.6932 14.2528 21.8318 14.1205C22.0432 14.3145 22.3716 14.3128 22.5802 14.1105L24.2666 12.4762C24.4829 12.2664 24.4883 11.9208 24.2784 11.7042Z" fill="#303231"/>
<path d="M20.1084 11.5974C20.1148 11.5974 20.1211 11.5968 20.1274 11.5964C20.1771 11.748 20.3197 11.8576 20.488 11.8576C20.6977 11.8576 20.8676 11.6877 20.8676 11.478C20.8676 11.3583 20.8121 11.2517 20.7256 11.1821C20.7941 11.1159 20.8369 11.0232 20.8369 10.9203C20.8369 10.7192 20.6738 10.556 20.4726 10.556C20.2714 10.556 20.1083 10.7191 20.1083 10.9203C20.1083 10.9379 20.11 10.9551 20.1124 10.9721C20.111 10.9721 20.1097 10.9718 20.1083 10.9718C19.9356 10.9718 19.7955 11.1119 19.7955 11.2846C19.7956 11.4573 19.9356 11.5974 20.1084 11.5974Z" fill="#303231"/>
<path d="M24.7034 14.4781C24.6899 14.4756 24.6766 14.4745 24.6633 14.4739C24.6635 14.4729 24.6638 14.4719 24.664 14.4708C24.6883 14.339 24.6011 14.2125 24.4693 14.1883C24.3375 14.164 24.211 14.2512 24.1867 14.383C24.1858 14.3879 24.1854 14.3928 24.1847 14.3977C24.062 14.4144 23.9583 14.5078 23.9347 14.6362C23.9053 14.7962 24.0111 14.9497 24.1711 14.9792C24.2625 14.996 24.3516 14.9685 24.4169 14.9123C24.4578 14.9739 24.5226 15.0196 24.6011 15.034C24.7546 15.0623 24.9019 14.9607 24.9302 14.8072C24.9585 14.6537 24.8569 14.5064 24.7034 14.4781Z" fill="#303231"/>
<path d="M26.213 10H21.9754C21.769 10 21.6016 10.1673 21.6016 10.3738C21.6016 10.5802 21.769 10.7476 21.9754 10.7476H25.8393V14.6115C25.8393 14.818 26.0067 14.9853 26.213 14.9853C26.4194 14.9853 26.5868 14.818 26.5868 14.6115V10.3738C26.5868 10.1673 26.4194 10 26.213 10Z" fill="#303231"/>
</g>
<defs>
<linearGradient id="paint0_linear_2288_894" x1="18" y1="0" x2="18" y2="36" gradientUnits="userSpaceOnUse">
<stop stop-color="white"/>
<stop offset="1" stop-color="white" stop-opacity="0"/>
</linearGradient>
<linearGradient id="paint1_linear_2288_894" x1="18" y1="0" x2="18" y2="36" gradientUnits="userSpaceOnUse">
<stop stop-color="#FFB1A2"/>
<stop offset="1" stop-color="#FEA08D"/>
</linearGradient>
<clipPath id="clip0_2288_894">
<rect width="17.1429" height="17.1429" fill="white" transform="translate(10.2857 10)"/>
</clipPath>
</defs>
</svg>
