<svg width="600" height="600" version="1.1" xmlns="http://www.w3.org/2000/svg" desc="Created with imagetracer.js version 1.2.6" ><path fill="rgb(252,252,252)" stroke="rgb(252,252,252)" stroke-width="1" opacity="1" d="M 304 56 Q 307 55 306 58 Q 303 59 304 56 Z " /><path fill="rgb(252,252,252)" stroke="rgb(252,252,252)" stroke-width="1" opacity="1" d="M 309.5 58 Q 316.5 56.5 316 59.5 L 314.5 59 Q 308.5 60.3 309.5 58 Z " /><path fill="rgb(252,252,252)" stroke="rgb(252,252,252)" stroke-width="1" opacity="1" d="M 281.5 60 L 284 60.5 L 281.5 61 L 281.5 60 Z " /><path fill="rgb(252,252,252)" stroke="rgb(252,252,252)" stroke-width="1" opacity="1" d="M 332.5 60 L 332 61.5 Q 332.7 64.1 330 63 Q 328.9 60.3 331.5 61 L 332.5 60 Z " /><path fill="rgb(252,252,252)" stroke="rgb(252,252,252)" stroke-width="1" opacity="1" d="M 334.5 61 Q 337.5 60.2 336 64 L 334 63.5 L 334.5 61 Z " /><path fill="rgb(252,252,252)" stroke="rgb(252,252,252)" stroke-width="1" opacity="1" d="M 339.5 64 Q 343.3 63.3 344 65.5 L 342.5 65 Q 338.5 65.8 339.5 64 Z " /><path fill="rgb(252,252,252)" stroke="rgb(252,252,252)" stroke-width="1" opacity="1" d="M 248.5 66 L 249.5 68 L 248.5 66 Z " /><path fill="rgb(252,252,252)" stroke="rgb(252,252,252)" stroke-width="1" opacity="1" d="M 357.5 68 L 360 68.5 L 359.5 71 L 356.5 70 L 355 69.5 L 357.5 68 Z " /><path fill="rgb(252,252,252)" stroke="rgb(252,252,252)" stroke-width="1" opacity="1" d="M 365.5 72 L 366.5 74 L 365.5 72 Z " /><path fill="rgb(252,252,252)" stroke="rgb(252,252,252)" stroke-width="1" opacity="1" d="M 224.5 76 L 227 77.5 L 225.5 78 L 224.5 76 Z " /><path fill="rgb(252,252,252)" stroke="rgb(252,252,252)" stroke-width="1" opacity="1" d="M 369.5 76 Q 373.3 75.3 374 77.5 L 372 78.5 Q 372.8 75.9 369.5 77 L 369.5 76 Z " /><path fill="rgb(252,252,252)" stroke="rgb(252,252,252)" stroke-width="1" opacity="1" d="M 374.5 79 L 377 80 L 376.5 82 L 374.5 79 Z " /><path fill="rgb(252,252,252)" stroke="rgb(252,252,252)" stroke-width="1" opacity="1" d="M 221.5 80 L 222.5 82 L 221.5 80 Z " /><path fill="rgb(252,252,252)" stroke="rgb(252,252,252)" stroke-width="1" opacity="1" d="M 218.5 84 L 217.5 86 L 218.5 84 Z " /><path fill="rgb(252,252,252)" stroke="rgb(252,252,252)" stroke-width="1" opacity="1" d="M 382.5 86 L 383.5 88 L 382.5 86 Z " /><path fill="rgb(252,252,252)" stroke="rgb(252,252,252)" stroke-width="1" opacity="1" d="M 389.5 89 L 390.5 91 Q 387.7 91.7 389.5 89 Z " /><path fill="rgb(252,252,252)" stroke="rgb(252,252,252)" stroke-width="1" opacity="1" d="M 211.5 90 L 208.5 94 L 208.5 91 Q 210 93.5 211.5 90 Z " /><path fill="rgb(252,252,252)" stroke="rgb(252,252,252)" stroke-width="1" opacity="1" d="M 394.5 93 L 393.5 95 L 394.5 93 Z " /><path fill="rgb(252,252,252)" stroke="rgb(252,252,252)" stroke-width="1" opacity="1" d="M 396.5 98 L 397.5 100 L 396.5 98 Z " /><path fill="rgb(252,252,252)" stroke="rgb(252,252,252)" stroke-width="1" opacity="1" d="M 399.5 100 L 399.5 103 Q 396.5 101.5 399.5 100 Z " /><path fill="rgb(252,252,252)" stroke="rgb(252,252,252)" stroke-width="1" opacity="1" d="M 401.5 105 L 404 105.5 L 403.5 108 L 401.5 105 Z " /><path fill="rgb(252,252,252)" stroke="rgb(252,252,252)" stroke-width="1" opacity="1" d="M 404.5 109 L 406 111.5 L 405 111.5 L 404.5 109 Z " /><path fill="rgb(252,252,252)" stroke="rgb(252,252,252)" stroke-width="1" opacity="1" d="M 190.5 116 L 192 118.5 L 190.5 121 L 190 119.5 L 190.5 118 Q 187.9 117.2 189 120.5 L 188 120.5 Q 187.5 116.5 190.5 116 Z " /><path fill="rgb(252,252,252)" stroke="rgb(252,252,252)" stroke-width="1" opacity="1" d="M 409.5 116 L 411 121.5 L 410 121.5 L 409.5 116 Z " /><path fill="rgb(252,252,252)" stroke="rgb(252,252,252)" stroke-width="1" opacity="1" d="M 186.5 128 L 187 130 L 185 129.5 L 186.5 128 Z " /><path fill="rgb(252,252,252)" stroke="rgb(252,252,252)" stroke-width="1" opacity="1" d="M 413.5 129 L 416 129.5 L 413.5 130 L 413.5 129 Z " /><path fill="rgb(252,252,252)" stroke="rgb(252,252,252)" stroke-width="1" opacity="1" d="M 184.5 131 L 186 134.5 L 184 135.5 L 184 133.5 L 184.5 131 Z " /><path fill="rgb(252,252,252)" stroke="rgb(252,252,252)" stroke-width="1" opacity="1" d="M 182 141 L 184 141.5 L 182.5 144 L 182 141 Z " /><path fill="rgb(252,252,252)" stroke="rgb(252,252,252)" stroke-width="1" opacity="1" d="M 418.5 148 L 419.5 150 Q 416.7 150.7 418.5 148 Z " /><path fill="rgb(252,252,252)" stroke="rgb(252,252,252)" stroke-width="1" opacity="1" d="M 181.5 150 L 182 152.5 L 181 152.5 L 181.5 150 Z " /><path fill="rgb(252,252,252)" stroke="rgb(252,252,252)" stroke-width="1" opacity="1" d="M 414.5 159 L 416 172 L 414 171.5 L 414.5 159 Z " /><path fill="rgb(252,252,252)" stroke="rgb(252,252,252)" stroke-width="1" opacity="1" d="M 184.5 170 L 185 173.5 L 184 173.5 L 184.5 170 Z " /><path fill="rgb(252,252,252)" stroke="rgb(252,252,252)" stroke-width="1" opacity="1" d="M 186.5 177 L 187 179.5 L 186 179.5 L 186.5 177 Z " /><path fill="rgb(252,252,252)" stroke="rgb(252,252,252)" stroke-width="1" opacity="1" d="M 414.5 177 L 416 180.5 L 415 180.5 L 414.5 177 Z " /><path fill="rgb(252,252,252)" stroke="rgb(252,252,252)" stroke-width="1" opacity="1" d="M 413.5 182 Q 416.3 183.3 414 184.5 L 413.5 186 L 413 184.5 L 413.5 182 Z " /><path fill="rgb(252,252,252)" stroke="rgb(252,252,252)" stroke-width="1" opacity="1" d="M 187.5 185 L 188 187.5 L 187 187.5 L 187.5 185 Z " /><path fill="rgb(252,252,252)" stroke="rgb(252,252,252)" stroke-width="1" opacity="1" d="M 414.5 188 L 416 191.5 L 414 192.5 L 415 190.5 L 414.5 188 Z " /><path fill="rgb(252,252,252)" stroke="rgb(252,252,252)" stroke-width="1" opacity="1" d="M 412.5 190 L 414 194.5 L 412 193.5 L 412.5 190 Z " /><path fill="rgb(252,252,252)" stroke="rgb(252,252,252)" stroke-width="1" opacity="1" d="M 411.5 206 L 412 208.5 L 411 208.5 L 411.5 206 Z " /><path fill="rgb(252,252,252)" stroke="rgb(252,252,252)" stroke-width="1" opacity="1" d="M 189.5 208 L 190 210.5 L 189 210.5 L 189.5 208 Z " /><path fill="rgb(252,252,252)" stroke="rgb(252,252,252)" stroke-width="1" opacity="1" d="M 410.5 222 L 412 224.5 L 410 223.5 L 410.5 222 Z " /><path fill="rgb(252,252,252)" stroke="rgb(252,252,252)" stroke-width="1" opacity="1" d="M 190.5 225 L 192 227.5 L 190 226.5 L 190.5 225 Z " /><path fill="rgb(252,252,252)" stroke="rgb(252,252,252)" stroke-width="1" opacity="1" d="M 409.5 227 L 410 229.5 L 409 229.5 L 409.5 227 Z " /><path fill="rgb(252,252,252)" stroke="rgb(252,252,252)" stroke-width="1" opacity="1" d="M 411.5 231 L 408.5 235 L 408.5 232 Q 410 234.5 411.5 231 Z " /><path fill="rgb(252,252,252)" stroke="rgb(252,252,252)" stroke-width="1" opacity="1" d="M 192.5 234 Q 195.5 235.5 194 241.5 L 193 241.5 L 192 238.5 L 193 236.5 L 192.5 234 Z " /><path fill="rgb(252,252,252)" stroke="rgb(252,252,252)" stroke-width="1" opacity="1" d="M 407.5 243 L 407 244.5 L 406.5 250 L 406 244.5 L 407.5 243 Z " /><path fill="rgb(252,252,252)" stroke="rgb(252,252,252)" stroke-width="1" opacity="1" d="M 196.5 256 L 197 258.5 L 196 258.5 L 196.5 256 Z " /><path fill="rgb(252,252,252)" stroke="rgb(252,252,252)" stroke-width="1" opacity="1" d="M 197.5 261 L 197 262.5 L 196.5 264 L 196 262.5 L 197.5 261 Z " /><path fill="rgb(252,252,252)" stroke="rgb(252,252,252)" stroke-width="1" opacity="1" d="M 198.5 265 L 200 268.5 L 198 267.5 L 198.5 265 Z " /><path fill="rgb(252,252,252)" stroke="rgb(252,252,252)" stroke-width="1" opacity="1" d="M 401 268 Q 404 267 403 270 Q 400 271 401 268 Z " /><path fill="rgb(252,252,252)" stroke="rgb(252,252,252)" stroke-width="1" opacity="1" d="M 200.5 277 L 201 280.5 L 200 280.5 L 200.5 277 Z " /><path fill="rgb(252,252,252)" stroke="rgb(252,252,252)" stroke-width="1" opacity="1" d="M 203.5 278 L 203 279.5 L 202.5 281 L 202 279.5 L 203.5 278 Z " /><path fill="rgb(252,252,252)" stroke="rgb(252,252,252)" stroke-width="1" opacity="1" d="M 397.5 278 L 398.5 280 L 397.5 278 Z " /><path fill="rgb(252,252,252)" stroke="rgb(252,252,252)" stroke-width="1" opacity="1" d="M 393.5 284 L 392.5 286 L 393.5 284 Z " /><path fill="rgb(252,252,252)" stroke="rgb(252,252,252)" stroke-width="1" opacity="1" d="M 208.5 286 L 213 289.5 L 211.5 290 L 208.5 286 Z " /><path fill="rgb(252,252,252)" stroke="rgb(252,252,252)" stroke-width="1" opacity="1" d="M 391.5 287 L 392 289.5 L 391 289.5 L 391.5 287 Z " /><path fill="rgb(252,252,252)" stroke="rgb(252,252,252)" stroke-width="1" opacity="1" d="M 389.5 288 L 389 289.5 Q 389.7 292.1 387 291 Q 385.9 288.3 388.5 289 L 389.5 288 Z " /><path fill="rgb(252,252,252)" stroke="rgb(252,252,252)" stroke-width="1" opacity="1" d="M 217.5 294 L 218 297.5 L 217 297.5 L 217.5 294 Z " /><path fill="rgb(252,252,252)" stroke="rgb(252,252,252)" stroke-width="1" opacity="1" d="M 382.5 300 L 383 302.5 L 382 302.5 L 382.5 300 Z " /><path fill="rgb(252,252,252)" stroke="rgb(252,252,252)" stroke-width="1" opacity="1" d="M 382.5 304 L 384 306.5 L 382 307.5 L 383 305.5 L 381 305.5 L 382.5 304 Z " /><path fill="rgb(252,252,252)" stroke="rgb(252,252,252)" stroke-width="1" opacity="1" d="M 220 312 L 222 312.5 L 220 313.5 L 220 312 Z " /><path fill="rgb(252,252,252)" stroke="rgb(252,252,252)" stroke-width="1" opacity="1" d="M 222 318 L 224 318.5 L 222 319.5 L 222 318 Z " /><path fill="rgb(252,252,252)" stroke="rgb(252,252,252)" stroke-width="1" opacity="1" d="M 373.5 327 L 376 328.5 L 375.5 330 L 375 328 L 373.5 327 Z " /><path fill="rgb(252,252,252)" stroke="rgb(252,252,252)" stroke-width="1" opacity="1" d="M 230.5 333 L 229.5 335 L 230.5 333 Z " /><path fill="rgb(252,252,252)" stroke="rgb(252,252,252)" stroke-width="1" opacity="1" d="M 369 335 L 371 335.5 L 369 340 L 367 339.5 Q 369.8 338.4 369 335 Z " /><path fill="rgb(252,252,252)" stroke="rgb(252,252,252)" stroke-width="1" opacity="1" d="M 232.5 339 L 235 340.5 L 236 342.5 L 234 342.5 L 233.5 344 L 233 342.5 L 234 340 L 232.5 339 Z " /><path fill="rgb(252,252,252)" stroke="rgb(252,252,252)" stroke-width="1" opacity="1" d="M 366.5 341 L 366.5 344 Q 364.3 344.8 365 342.5 L 366.5 341 Z " /><path fill="rgb(252,252,252)" stroke="rgb(252,252,252)" stroke-width="1" opacity="1" d="M 362.5 347 L 362 348.5 L 361.5 350 L 361 348.5 L 362.5 347 Z " /><path fill="rgb(252,252,252)" stroke="rgb(252,252,252)" stroke-width="1" opacity="1" d="M 361.5 351 L 364 351.5 L 362.5 354 Q 359.4 354.7 361.5 351 Z " /><path fill="rgb(252,252,252)" stroke="rgb(252,252,252)" stroke-width="1" opacity="1" d="M 239.5 356 L 240 359.5 L 239 359.5 L 239.5 356 Z " /><path fill="rgb(252,252,252)" stroke="rgb(252,252,252)" stroke-width="1" opacity="1" d="M 361.5 390 L 362 392 L 364 392.5 Q 362.5 395.5 361 392.5 L 361.5 390 Z " /><path fill="rgb(252,252,252)" stroke="rgb(252,252,252)" stroke-width="1" opacity="1" d="M 232.5 411 Q 235.5 412.5 232.5 414 L 232.5 411 Z " /><path fill="rgb(252,252,252)" stroke="rgb(252,252,252)" stroke-width="1" opacity="1" d="M 366 411 Q 369 410 368 413 Q 365 414 366 411 Z " /><path fill="rgb(252,252,252)" stroke="rgb(252,252,252)" stroke-width="1" opacity="1" d="M 232.5 415 L 231.5 417 L 232.5 415 Z " /><path fill="rgb(252,252,252)" stroke="rgb(252,252,252)" stroke-width="1" opacity="1" d="M 228.5 417 L 229.5 419 L 228.5 417 Z " /><path fill="rgb(252,252,252)" stroke="rgb(252,252,252)" stroke-width="1" opacity="1" d="M 226.5 423 L 225.5 425 L 226.5 423 Z " /><path fill="rgb(252,252,252)" stroke="rgb(252,252,252)" stroke-width="1" opacity="1" d="M 374.5 424 L 376 426.5 L 374 425.5 L 374.5 424 Z " /><path fill="rgb(252,252,252)" stroke="rgb(252,252,252)" stroke-width="1" opacity="1" d="M 378.5 429 L 380 429.5 L 379.5 432 L 377 430.5 L 378.5 429 Z " /><path fill="rgb(252,252,252)" stroke="rgb(252,252,252)" stroke-width="1" opacity="1" d="M 212 432 L 214 432.5 L 212 433.5 L 212 432 Z " /><path fill="rgb(252,252,252)" stroke="rgb(252,252,252)" stroke-width="1" opacity="1" d="M 218.5 432 L 217.5 434 L 218.5 432 Z " /><path fill="rgb(252,252,252)" stroke="rgb(252,252,252)" stroke-width="1" opacity="1" d="M 213.5 435 L 214 436.5 L 210 438 L 210.5 436 L 213 437 L 213.5 435 Z " /><path fill="rgb(252,252,252)" stroke="rgb(252,252,252)" stroke-width="1" opacity="1" d="M 385.5 436 L 386.5 438 L 385.5 436 Z " /><path fill="rgb(252,252,252)" stroke="rgb(252,252,252)" stroke-width="1" opacity="1" d="M 388.5 437 L 394 440 L 393.5 442 Q 391.2 437.8 389 439.5 L 389.5 438 L 388.5 437 Z " /><path fill="rgb(252,252,252)" stroke="rgb(252,252,252)" stroke-width="1" opacity="1" d="M 201.5 442 Q 205.3 441 204 444 L 201.5 445 L 200 444.5 L 199.5 446 L 199 444.5 L 201.5 442 Z " /><path fill="rgb(252,252,252)" stroke="rgb(252,252,252)" stroke-width="1" opacity="1" d="M 401.5 444 L 403 444.5 Q 400.3 446.3 404.5 448 L 409 449 L 408.5 451 L 400 445.5 L 401.5 444 Z " /><path fill="rgb(252,252,252)" stroke="rgb(252,252,252)" stroke-width="1" opacity="1" d="M 196 445 L 198 445.5 L 196 446.5 L 196 445 Z " /><path fill="rgb(252,252,252)" stroke="rgb(252,252,252)" stroke-width="1" opacity="1" d="M 190.5 449 L 193 449.5 L 190.5 450 L 190.5 449 Z " /><path fill="rgb(252,252,252)" stroke="rgb(252,252,252)" stroke-width="1" opacity="1" d="M 411.5 449 L 415 453.5 L 414 453.5 L 411.5 449 Z " /><path fill="rgb(252,252,252)" stroke="rgb(252,252,252)" stroke-width="1" opacity="1" d="M 180.5 453 L 182 453.5 L 180 454 L 179.5 456 L 179 454.5 L 180.5 453 Z " /><path fill="rgb(252,252,252)" stroke="rgb(252,252,252)" stroke-width="1" opacity="1" d="M 418.5 453 L 421 453.5 L 419.5 456 L 418.5 453 Z " /><path fill="rgb(252,252,252)" stroke="rgb(252,252,252)" stroke-width="1" opacity="1" d="M 422.5 456 L 423.5 458 L 422.5 456 Z " /><path fill="rgb(252,252,252)" stroke="rgb(252,252,252)" stroke-width="1" opacity="1" d="M 427.5 456 L 429 458.5 L 427 457.5 L 427.5 456 Z " /><path fill="rgb(252,252,252)" stroke="rgb(252,252,252)" stroke-width="1" opacity="1" d="M 163.5 460 L 164.5 462 L 163.5 460 Z " /><path fill="rgb(252,252,252)" stroke="rgb(252,252,252)" stroke-width="1" opacity="1" d="M 435.5 460 Q 439.9 458.5 439 461.5 L 438.5 463 L 440 463.5 L 438.5 464 L 435.5 461 L 434.5 462 L 433 461.5 L 435.5 460 Z " /><path fill="rgb(252,252,252)" stroke="rgb(252,252,252)" stroke-width="1" opacity="1" d="M 151 464 Q 154 463 153 466 Q 150 467 151 464 Z " /><path fill="rgb(252,252,252)" stroke="rgb(252,252,252)" stroke-width="1" opacity="1" d="M 444.5 464 L 445.5 466 Q 442.7 466.7 444.5 464 Z " /><path fill="rgb(252,252,252)" stroke="rgb(252,252,252)" stroke-width="1" opacity="1" d="M 144.5 465 L 146.5 468 L 144.5 465 Z " /><path fill="rgb(252,252,252)" stroke="rgb(252,252,252)" stroke-width="1" opacity="1" d="M 448.5 465 L 450 465.5 L 447.5 467 L 448.5 465 Z " /><path fill="rgb(252,252,252)" stroke="rgb(252,252,252)" stroke-width="1" opacity="1" d="M 133.5 468 Q 136.1 467.3 135 470 L 132 469.5 L 133.5 468 Z " /><path fill="rgb(252,252,252)" stroke="rgb(252,252,252)" stroke-width="1" opacity="1" d="M 138.5 468 Q 140.8 467.3 140 469.5 L 138.5 468 Z " /><path fill="rgb(252,252,252)" stroke="rgb(252,252,252)" stroke-width="1" opacity="1" d="M 463.5 470 L 464.5 472 L 463.5 470 Z " /><path fill="rgb(252,252,252)" stroke="rgb(252,252,252)" stroke-width="1" opacity="1" d="M 473 472 L 477 472.5 L 473.5 474 L 473 472 Z " /><path fill="rgb(252,252,252)" stroke="rgb(252,252,252)" stroke-width="1" opacity="1" d="M 482.5 472 L 483.5 474 L 481.5 474 L 479.5 475 L 479 473 L 482.5 472 Z " /><path fill="rgb(252,252,252)" stroke="rgb(252,252,252)" stroke-width="1" opacity="1" d="M 114.5 473 L 118 473.5 L 114.5 474 L 114.5 473 Z " /><path fill="rgb(252,252,252)" stroke="rgb(252,252,252)" stroke-width="1" opacity="1" d="M 116.5 477 L 118 477.5 Q 117.3 479.8 113.5 479 L 113.5 478 L 116.5 477 Z " /><path fill="rgb(252,252,252)" stroke="rgb(252,252,252)" stroke-width="1" opacity="1" d="M 482.5 479 L 483.5 481 Q 480.7 481.7 482.5 479 Z " /><path fill="rgb(252,252,252)" stroke="rgb(252,252,252)" stroke-width="1" opacity="1" d="M 129.5 481 L 129.5 483 L 131.5 482 L 131.5 484 L 133 484.5 L 131.5 485 L 128 482.5 L 129.5 481 Z " /><path fill="rgb(252,252,252)" stroke="rgb(252,252,252)" stroke-width="1" opacity="1" d="M 479.5 481 L 482 482.5 L 480 483.5 L 480.5 482 L 479.5 481 Z " /><path fill="rgb(252,252,252)" stroke="rgb(252,252,252)" stroke-width="1" opacity="1" d="M 477.5 483 L 478.5 485 L 471.5 488 L 473.5 485 L 474.5 486 L 477.5 483 Z " /><path fill="rgb(252,252,252)" stroke="rgb(252,252,252)" stroke-width="1" opacity="1" d="M 136.5 486 L 139 487.5 L 137.5 488 L 136.5 486 Z " /><path fill="rgb(252,252,252)" stroke="rgb(252,252,252)" stroke-width="1" opacity="1" d="M 140.5 487 L 142 489.5 L 140 488.5 L 140.5 487 Z " /><path fill="rgb(252,252,252)" stroke="rgb(252,252,252)" stroke-width="1" opacity="1" d="M 143.5 489 L 145 491.5 L 142 491.5 L 143.5 489 Z " /><path fill="rgb(252,252,252)" stroke="rgb(252,252,252)" stroke-width="1" opacity="1" d="M 469.5 489 L 470.5 491 L 469.5 489 Z " /><path fill="rgb(252,252,252)" stroke="rgb(252,252,252)" stroke-width="1" opacity="1" d="M 461.5 493 L 462 494.5 L 459.5 496 L 459.5 495 Q 462 495.7 461.5 493 Z " /><path fill="rgb(252,252,252)" stroke="rgb(252,252,252)" stroke-width="1" opacity="1" d="M 156.5 497 L 156 498.5 Q 156.8 500.8 154.5 500 L 156.5 497 Z " /><path fill="rgb(252,252,252)" stroke="rgb(252,252,252)" stroke-width="1" opacity="1" d="M 453.5 498 L 456 498.5 L 451.5 500 L 451.5 499 L 453.5 498 Z " /><path fill="rgb(252,252,252)" stroke="rgb(252,252,252)" stroke-width="1" opacity="1" d="M 165.5 500 L 164.5 502 L 165.5 500 Z " /><path fill="rgb(252,252,252)" stroke="rgb(252,252,252)" stroke-width="1" opacity="1" d="M 167.5 501 L 169 503.5 L 167 502.5 L 167.5 501 Z " /><path fill="rgb(252,252,252)" stroke="rgb(252,252,252)" stroke-width="1" opacity="1" d="M 448.5 501 L 448 502.5 L 447.5 504 L 447 502.5 L 448.5 501 Z " /><path fill="rgb(252,252,252)" stroke="rgb(252,252,252)" stroke-width="1" opacity="1" d="M 178.5 502 Q 181.8 500.9 181 503.5 L 179.5 503 L 178.5 502 Z " /><path fill="rgb(252,252,252)" stroke="rgb(252,252,252)" stroke-width="1" opacity="1" d="M 452.5 502 L 451.5 504 L 452.5 502 Z " /><path fill="rgb(252,252,252)" stroke="rgb(252,252,252)" stroke-width="1" opacity="1" d="M 439.5 504 L 440 507.5 L 438 506.5 L 439.5 504 Z " /><path fill="rgb(252,252,252)" stroke="rgb(252,252,252)" stroke-width="1" opacity="1" d="M 206.5 505 L 211 506 Q 209.9 508.7 212.5 508 L 212.5 509 L 208 508 Q 209.1 505.3 206.5 506 L 206.5 505 Z " /><path fill="rgb(252,252,252)" stroke="rgb(252,252,252)" stroke-width="1" opacity="1" d="M 426.5 508 L 428 508.5 L 426 509.5 L 429 510.5 Q 427.8 513.3 426.5 511 L 421.5 512 L 422.5 510 L 426.5 508 Z " /><path fill="rgb(252,252,252)" stroke="rgb(252,252,252)" stroke-width="1" opacity="1" d="M 387.5 509 L 394 509.5 L 393.5 511 L 397.5 510 L 399.5 510 L 401 510.5 L 398.5 512 L 396.5 511 Q 395 513.5 389.5 512 L 389.5 511 L 391 510.5 Q 386.6 510.9 387.5 509 Z " /><path fill="rgb(252,252,252)" stroke="rgb(252,252,252)" stroke-width="1" opacity="1" d="M 214.5 510 L 219 510.5 Q 217.8 513.3 216.5 511 Q 213.5 511.5 214.5 510 Z " /><path fill="rgb(252,252,252)" stroke="rgb(252,252,252)" stroke-width="1" opacity="1" d="M 407 510 L 413.5 510 L 415 511.5 L 412.5 512 Q 405.6 514 407 510 Z " /><path fill="rgb(252,252,252)" stroke="rgb(252,252,252)" stroke-width="1" opacity="1" d="M 384.5 511 L 387 511.5 L 384.5 512 L 384.5 511 Z " /><path fill="rgb(252,252,252)" stroke="rgb(252,252,252)" stroke-width="1" opacity="1" d="M 416.5 511 L 420 511.5 L 416.5 512 L 416.5 511 Z " /><path fill="rgb(252,252,252)" stroke="rgb(252,252,252)" stroke-width="1" opacity="1" d="M 222.5 514 L 224.5 514 L 228 517.5 L 226.5 517 L 222.5 515 L 221 515.5 L 222.5 514 Z " /><path fill="rgb(252,252,252)" stroke="rgb(252,252,252)" stroke-width="1" opacity="1" d="M 370.5 514 L 373 514.5 L 368.5 516 L 368.5 515 L 370.5 514 Z " /><path fill="rgb(252,252,252)" stroke="rgb(252,252,252)" stroke-width="1" opacity="1" d="M 365.5 517 Q 368.1 516.3 367 519 Q 362.9 517.3 364 521.5 L 363 521.5 L 362.5 520 L 361 520.5 L 365.5 517 Z " /><path fill="rgb(252,252,252)" stroke="rgb(252,252,252)" stroke-width="1" opacity="1" d="M 229.5 518 L 228.5 520 L 229.5 518 Z " /><path fill="rgb(252,252,252)" stroke="rgb(252,252,252)" stroke-width="1" opacity="1" d="M 233.5 521 L 236 524.5 L 234.5 524 L 232 522.5 L 233.5 521 Z " /><path fill="rgb(252,252,252)" stroke="rgb(252,252,252)" stroke-width="1" opacity="1" d="M 358 522 Q 361 521 360 524 Q 357 525 358 522 Z " /><path fill="rgb(252,252,252)" stroke="rgb(252,252,252)" stroke-width="1" opacity="1" d="M 354.5 525 L 355 526.5 L 353 527.5 L 354.5 525 Z " /><path fill="rgb(252,252,252)" stroke="rgb(252,252,252)" stroke-width="1" opacity="1" d="M 237.5 526 L 236.5 528 L 237.5 526 Z " /><path fill="rgb(252,252,252)" stroke="rgb(252,252,252)" stroke-width="1" opacity="1" d="M 239.5 526 L 240.5 528 L 242 527.5 Q 240.5 530.5 239 527.5 L 239.5 526 Z " /><path fill="rgb(252,252,252)" stroke="rgb(252,252,252)" stroke-width="1" opacity="1" d="M 351.5 528 L 352 530 Q 348.6 529.3 347.5 532 L 348 530.5 Q 347.2 527.9 350.5 529 L 351.5 528 Z " /><path fill="rgb(252,252,252)" stroke="rgb(252,252,252)" stroke-width="1" opacity="1" d="M 244.5 529 L 246 531.5 L 244 530.5 L 244.5 529 Z " /><path fill="rgb(252,252,252)" stroke="rgb(252,252,252)" stroke-width="1" opacity="1" d="M 248.5 532 L 251 533 Q 249.9 535.7 252.5 535 L 252.5 536 L 249.5 535 L 248 535.5 L 249 533.5 L 248.5 532 Z " /><path fill="rgb(252,252,252)" stroke="rgb(252,252,252)" stroke-width="1" opacity="1" d="M 338.5 535 L 342 535.5 L 336.5 537 L 336.5 536 L 338.5 535 Z " /><path fill="rgb(252,252,252)" stroke="rgb(252,252,252)" stroke-width="1" opacity="1" d="M 258 536 Q 260.7 534.9 260 537.5 L 261.5 537 L 263 537.5 L 261 538 L 260.5 540 L 258 536 Z " /><path fill="rgb(252,252,252)" stroke="rgb(252,252,252)" stroke-width="1" opacity="1" d="M 265.5 538 L 264.5 540 L 265.5 538 Z " /><path fill="rgb(252,252,252)" stroke="rgb(252,252,252)" stroke-width="1" opacity="1" d="M 278.5 541 L 279 543 L 282.5 542 L 285 542.5 Q 284 545 279.5 544 L 277.5 543 L 275.5 544 L 275.5 543 L 278.5 541 Z " /><path fill="rgb(252,252,252)" stroke="rgb(252,252,252)" stroke-width="1" opacity="1" d="M 319.5 541 L 320.5 543 L 319.5 541 Z " /><path fill="rgb(252,252,252)" stroke="rgb(252,252,252)" stroke-width="1" opacity="1" d="M 311.5 542 L 314.5 543 L 316 542.5 Q 312.8 546.3 304.5 545 L 300 543.5 L 303.5 543 L 306.5 544 L 308.5 544 L 312 543.5 L 311.5 542 Z " /><path fill="rgb(252,252,252)" stroke="rgb(252,252,252)" stroke-width="1" opacity="1" d="M 292.5 544 L 296 544.5 L 292.5 545 L 292.5 544 Z " /><path fill="rgb(209,209,209)" stroke="rgb(209,209,209)" stroke-width="1" opacity="1" d="M 287.5 60 L 323 85 L 324.5 88 L 326.5 88 L 352 112.5 L 354 115.5 L 367 132.5 L 371 140.5 L 375 155.5 L 374 159.5 L 375 160.5 L 376 184.5 L 375 184.5 L 373.5 181 L 369 193.5 L 369 200 Q 363.2 200.7 360.5 197 L 353.5 196 L 321.5 180 Q 317.2 173.8 308.5 172 L 299 164 L 297.5 161 Q 295.3 161.8 296 159.5 L 293 158 L 292.5 156 L 292 158.5 L 294 163.5 L 294 165.5 L 295 169.5 L 295 191 L 292 189.5 L 287.5 184 L 275.5 179 L 265.5 172 L 264 172.5 Q 266.8 170.8 262.5 169 Q 259.9 168.2 261 171.5 Q 263.3 172.8 262 177.5 L 264 180.5 L 265 195.5 L 264 195.5 L 258.5 189 Q 255.2 190.1 256 187.5 L 239 172.5 L 237 168 L 233 166 L 229 178.5 L 227.5 190 L 215.5 184 L 214 188.5 L 213 203.5 L 212 204.5 L 212 243.5 Q 214.3 244.7 213 249.5 L 212 249.5 L 211 246.5 L 203.5 239 L 194 239 L 194 232.5 L 191 223.5 L 190 197.5 L 188 188.5 L 188 178.5 L 187 177.5 L 187 157.5 L 185.5 156 Q 182.2 157.1 183 154.5 L 182 152.5 L 187 130.5 L 196.5 111 L 198 110.5 Q 195.5 109 199 107.5 Q 204.3 97.8 212.5 91 L 216.5 90 L 218 90.5 L 217 88.5 Q 227.5 77.5 242.5 71 L 245.5 71 L 257.5 66 L 277.5 63 L 287.5 60 Z " /><path fill="rgb(209,209,209)" stroke="rgb(209,209,209)" stroke-width="1" opacity="1" d="M 353.5 69 L 352.5 71 L 353.5 69 Z " /><path fill="rgb(209,209,209)" stroke="rgb(209,209,209)" stroke-width="1" opacity="1" d="M 376.5 86 L 377.5 88 L 376.5 86 Z " /><path fill="rgb(209,209,209)" stroke="rgb(209,209,209)" stroke-width="1" opacity="1" d="M 389.5 92 L 392.5 96 Q 390.7 92.9 389 94.5 L 389.5 92 Z " /><path fill="rgb(209,209,209)" stroke="rgb(209,209,209)" stroke-width="1" opacity="1" d="M 400.5 105 L 401.5 107 L 400.5 105 Z " /><path fill="rgb(209,209,209)" stroke="rgb(209,209,209)" stroke-width="1" opacity="1" d="M 413.5 131 L 414 133.5 L 412 134.5 L 413.5 131 Z " /><path fill="rgb(209,209,209)" stroke="rgb(209,209,209)" stroke-width="1" opacity="1" d="M 418.5 154 L 417.5 156 L 416 155.5 L 418.5 154 Z " /><path fill="rgb(209,209,209)" stroke="rgb(209,209,209)" stroke-width="1" opacity="1" d="M 413.5 160 L 414 162.5 L 413 162.5 L 413.5 160 Z " /><path fill="rgb(209,209,209)" stroke="rgb(209,209,209)" stroke-width="1" opacity="1" d="M 413.5 168 L 414 173.5 L 413 173.5 L 413.5 168 Z " /><path fill="rgb(209,209,209)" stroke="rgb(209,209,209)" stroke-width="1" opacity="1" d="M 412.5 183 L 413 185.5 L 412 185.5 L 412.5 183 Z " /><path fill="rgb(209,209,209)" stroke="rgb(209,209,209)" stroke-width="1" opacity="1" d="M 376.5 186 L 377 190.5 L 376 190.5 L 376.5 186 Z " /><path fill="rgb(209,209,209)" stroke="rgb(209,209,209)" stroke-width="1" opacity="1" d="M 386.5 200 L 384.5 203 L 386.5 200 Z " /><path fill="rgb(209,209,209)" stroke="rgb(209,209,209)" stroke-width="1" opacity="1" d="M 376.5 201 L 380 203.5 L 378.5 204 L 376.5 201 Z " /><path fill="rgb(209,209,209)" stroke="rgb(209,209,209)" stroke-width="1" opacity="1" d="M 410.5 202 L 411 205.5 L 410 205.5 L 410.5 202 Z " /><path fill="rgb(209,209,209)" stroke="rgb(209,209,209)" stroke-width="1" opacity="1" d="M 381.5 204 L 385 204.5 L 381.5 205 L 381.5 204 Z " /><path fill="rgb(209,209,209)" stroke="rgb(209,209,209)" stroke-width="1" opacity="1" d="M 389.5 204 L 390 236.5 L 389 236.5 L 389.5 204 Z " /><path fill="rgb(209,209,209)" stroke="rgb(209,209,209)" stroke-width="1" opacity="1" d="M 409.5 222 L 410 224.5 L 409 224.5 L 409.5 222 Z " /><path fill="rgb(209,209,209)" stroke="rgb(209,209,209)" stroke-width="1" opacity="1" d="M 398.5 234 L 397 236.5 L 395.5 239 L 396 237.5 L 398.5 234 Z " /><path fill="rgb(209,209,209)" stroke="rgb(209,209,209)" stroke-width="1" opacity="1" d="M 394.5 240 L 395 241.5 L 394.5 244 L 393 243.5 L 391.5 246 L 392 244.5 L 394.5 240 Z " /><path fill="rgb(209,209,209)" stroke="rgb(209,209,209)" stroke-width="1" opacity="1" d="M 388.5 244 L 389 246.5 L 388 246.5 L 388.5 244 Z " /><path fill="rgb(209,209,209)" stroke="rgb(209,209,209)" stroke-width="1" opacity="1" d="M 390.5 247 L 390 248.5 L 388.5 253 L 388 250.5 L 390.5 247 Z " /><path fill="rgb(209,209,209)" stroke="rgb(209,209,209)" stroke-width="1" opacity="1" d="M 397.5 272 Q 399.8 271.3 399 273.5 L 397.5 272 Z " /><path fill="rgb(209,209,209)" stroke="rgb(209,209,209)" stroke-width="1" opacity="1" d="M 393.5 280 Q 397 282 392.5 284 L 393.5 280 Z " /><path fill="rgb(209,209,209)" stroke="rgb(209,209,209)" stroke-width="1" opacity="1" d="M 214.5 288 L 217 288.5 L 214.5 289 L 214.5 288 Z " /><path fill="rgb(209,209,209)" stroke="rgb(209,209,209)" stroke-width="1" opacity="1" d="M 382.5 295 L 381.5 297 L 382.5 295 Z " /><path fill="rgb(209,209,209)" stroke="rgb(209,209,209)" stroke-width="1" opacity="1" d="M 365.5 340 L 364.5 342 L 365.5 340 Z " /><path fill="rgb(209,209,209)" stroke="rgb(209,209,209)" stroke-width="1" opacity="1" d="M 360.5 345 Q 363.5 346.5 360.5 348 L 360.5 345 Z " /><path fill="rgb(209,209,209)" stroke="rgb(209,209,209)" stroke-width="1" opacity="1" d="M 358.5 352 L 360 354.5 L 360 356.5 L 360 361.5 L 358 366.5 L 358 372.5 L 361 395.5 L 360.5 397 Q 362.8 396.3 362 398.5 Q 359.5 400 363 401.5 L 365 409.5 L 365 413.5 Q 364.3 416.1 367 415 L 367 417.5 Q 369.3 418.8 366.5 420 L 364.5 421 L 363 420.5 L 361.5 423 L 356.5 424 L 349.5 428 L 348 427.5 L 347.5 429 L 346 427.5 L 345 412.5 L 346 408.5 L 345 408.5 L 344.5 410 L 344 369.5 L 350 361 L 352 360.5 L 351.5 359 Q 354.8 360.1 354 357.5 L 353.5 356 L 355 356.5 L 358.5 352 Z " /><path fill="rgb(209,209,209)" stroke="rgb(209,209,209)" stroke-width="1" opacity="1" d="M 241.5 372 L 242 379.5 L 241 379.5 L 241.5 372 Z " /><path fill="rgb(209,209,209)" stroke="rgb(209,209,209)" stroke-width="1" opacity="1" d="M 235.5 410 L 236 412.5 L 235 412.5 L 235.5 410 Z " /><path fill="rgb(209,209,209)" stroke="rgb(209,209,209)" stroke-width="1" opacity="1" d="M 277.5 440 L 279.5 443 L 277.5 440 Z " /><path fill="rgb(209,209,209)" stroke="rgb(209,209,209)" stroke-width="1" opacity="1" d="M 312.5 444 L 315 444.5 Q 312.9 447.8 312.5 444 Z " /><path fill="rgb(209,209,209)" stroke="rgb(209,209,209)" stroke-width="1" opacity="1" d="M 294.5 468 L 292.5 471 L 294.5 468 Z " /><path fill="rgb(209,209,209)" stroke="rgb(209,209,209)" stroke-width="1" opacity="1" d="M 304.5 542 L 307 542.5 L 304.5 543 L 304.5 542 Z " /><path fill="rgb(198,198,198)" stroke="rgb(198,198,198)" stroke-width="1" opacity="1" d="M 299.5 58 L 315.5 60 L 330.5 64 L 335.5 64 L 352.5 69 Q 372.6 76.4 385.5 91 L 386.5 90 L 398 101.5 Q 406.1 111.4 411 124.5 L 417 144.5 L 418 155 L 413 156 L 414 159.5 L 413 162.5 L 414 167.5 L 413 168.5 L 413 182.5 L 412 183.5 L 411 201.5 L 410 202.5 L 410 221.5 L 407 234 L 400.5 233 L 396 236.5 L 388.5 250 L 388 247.5 L 390 236.5 L 390 204.5 L 389 198 Q 386.3 196.9 387 199.5 L 384 204 Q 379 204.8 377 201.5 L 377 186.5 L 376 185.5 L 374 156.5 L 374 154.5 L 371 140.5 L 367 132.5 L 354 114 Q 351.3 115.1 352 112.5 L 326.5 88 L 323 86.5 Q 323.8 84.3 321.5 85 L 312.5 77 L 288 60.5 L 299.5 58 Z " /><path fill="rgb(198,198,198)" stroke="rgb(198,198,198)" stroke-width="1" opacity="1" d="M 358.5 364 L 359 366.5 L 358.5 371 L 357 369.5 L 358 366.5 L 358.5 364 Z " /><path fill="rgb(198,198,198)" stroke="rgb(198,198,198)" stroke-width="1" opacity="1" d="M 358.5 372 L 359 377.5 L 358 377.5 L 358.5 372 Z " /><path fill="rgb(198,198,198)" stroke="rgb(198,198,198)" stroke-width="1" opacity="1" d="M 345.5 408 L 346 411.5 L 345 411.5 L 345.5 408 Z " /><path fill="rgb(198,198,198)" stroke="rgb(198,198,198)" stroke-width="1" opacity="1" d="M 365.5 413 L 366 414.5 L 364 415.5 L 365.5 413 Z " /><path fill="rgb(198,198,198)" stroke="rgb(198,198,198)" stroke-width="1" opacity="1" d="M 367.5 419 L 370 420.5 L 368.5 420 L 367.5 419 Z " /><path fill="rgb(198,198,198)" stroke="rgb(198,198,198)" stroke-width="1" opacity="1" d="M 363.5 420 L 366 420.5 Q 363.9 423.8 363.5 420 Z " /><path fill="rgb(198,198,198)" stroke="rgb(198,198,198)" stroke-width="1" opacity="1" d="M 233.5 421 L 234.5 423 L 233.5 421 Z " /><path fill="rgb(198,198,198)" stroke="rgb(198,198,198)" stroke-width="1" opacity="1" d="M 357.5 424 L 359 424.5 L 353.5 427 L 353.5 426 L 357.5 424 Z " /><path fill="rgb(198,198,198)" stroke="rgb(198,198,198)" stroke-width="1" opacity="1" d="M 349.5 426 L 349 427.5 L 348.5 429 L 348 427.5 L 349.5 426 Z " /><path fill="rgb(198,198,198)" stroke="rgb(198,198,198)" stroke-width="1" opacity="1" d="M 224.5 427 L 218.5 434 L 224.5 427 Z " /><path fill="rgb(198,198,198)" stroke="rgb(198,198,198)" stroke-width="1" opacity="1" d="M 380.5 433 L 381.5 435 L 380.5 433 Z " /><path fill="rgb(198,198,198)" stroke="rgb(198,198,198)" stroke-width="1" opacity="1" d="M 214.5 436 L 213.5 438 L 214.5 436 Z " /><path fill="rgb(198,198,198)" stroke="rgb(198,198,198)" stroke-width="1" opacity="1" d="M 271.5 436 L 272.5 438 L 271.5 436 Z " /><path fill="rgb(198,198,198)" stroke="rgb(198,198,198)" stroke-width="1" opacity="1" d="M 324.5 436 L 323.5 438 L 324.5 436 Z " /><path fill="rgb(198,198,198)" stroke="rgb(198,198,198)" stroke-width="1" opacity="1" d="M 274.5 438 L 275.5 440 L 274.5 438 Z " /><path fill="rgb(198,198,198)" stroke="rgb(198,198,198)" stroke-width="1" opacity="1" d="M 210.5 439 L 209.5 441 L 210.5 439 Z " /><path fill="rgb(198,198,198)" stroke="rgb(198,198,198)" stroke-width="1" opacity="1" d="M 317.5 441 L 315.5 444 L 317.5 441 Z " /><path fill="rgb(198,198,198)" stroke="rgb(198,198,198)" stroke-width="1" opacity="1" d="M 282.5 446 L 283.5 448 L 282.5 446 Z " /><path fill="rgb(198,198,198)" stroke="rgb(198,198,198)" stroke-width="1" opacity="1" d="M 311.5 449 L 311 450.5 L 310.5 452 L 310 450.5 L 311.5 449 Z " /><path fill="rgb(198,198,198)" stroke="rgb(198,198,198)" stroke-width="1" opacity="1" d="M 293.5 473 L 295.5 476 L 293.5 473 Z " /><path fill="rgb(198,198,198)" stroke="rgb(198,198,198)" stroke-width="1" opacity="1" d="M 302.5 473 L 300.5 476 L 302.5 473 Z " /><path fill="rgb(198,198,198)" stroke="rgb(198,198,198)" stroke-width="1" opacity="1" d="M 479.5 480 L 478.5 482 L 479.5 480 Z " /><path fill="rgb(198,198,198)" stroke="rgb(198,198,198)" stroke-width="1" opacity="1" d="M 140.5 486 L 141.5 488 L 140.5 486 Z " /><path fill="rgb(198,198,198)" stroke="rgb(198,198,198)" stroke-width="1" opacity="1" d="M 172.5 501 L 178 501.5 L 172.5 502 L 172.5 501 Z " /><path fill="rgb(198,198,198)" stroke="rgb(198,198,198)" stroke-width="1" opacity="1" d="M 191.5 502 L 195 502.5 L 191.5 503 L 191.5 502 Z " /><path fill="rgb(198,198,198)" stroke="rgb(198,198,198)" stroke-width="1" opacity="1" d="M 400.5 509 L 405 509.5 L 400.5 510 L 400.5 509 Z " /><path fill="rgb(198,198,198)" stroke="rgb(198,198,198)" stroke-width="1" opacity="1" d="M 414.5 509 L 418 509.5 L 414.5 510 L 414.5 509 Z " /><path fill="rgb(198,198,198)" stroke="rgb(198,198,198)" stroke-width="1" opacity="1" d="M 229.5 517 L 230.5 519 L 229.5 517 Z " /><path fill="rgb(198,198,198)" stroke="rgb(198,198,198)" stroke-width="1" opacity="1" d="M 361.5 519 L 360.5 521 L 361.5 519 Z " /><path fill="rgb(198,198,198)" stroke="rgb(198,198,198)" stroke-width="1" opacity="1" d="M 282.5 541 L 285 541.5 L 282.5 542 L 282.5 541 Z " /><path fill="rgb(198,198,198)" stroke="rgb(198,198,198)" stroke-width="1" opacity="1" d="M 293.5 542 L 304 542.5 L 293.5 543 L 293.5 542 Z " /><path fill="rgb(255,255,255)" stroke="rgb(255,255,255)" stroke-width="1" opacity="1" d="M 0 0 L 600 0 L 600 600 L 0 600 L 0 0 Z M 305 56 L 262 64 L 260 64 L 247 69 L 245 68 L 244 70 L 233 75 L 226 80 Q 223 79 224 82 L 215 90 L 212 90 L 204 99 Q 205 101 202 100 L 190 120 L 188 128 L 185 130 L 187 131 L 186 133 L 185 131 L 184 134 L 184 138 Q 185 142 182 141 L 183 145 L 181 151 L 181 156 Q 185 154 184 158 L 186 157 L 186 180 L 189 197 L 189 211 L 190 212 L 190 223 L 191 224 L 190 226 L 193 233 L 192 235 L 193 237 L 192 239 L 194 243 L 198 268 L 200 270 L 200 273 L 204 281 L 212 290 L 214 289 L 216 290 L 221 311 L 220 314 L 222 314 L 221 316 L 223 316 L 222 320 L 224 319 L 228 330 L 228 332 L 230 332 L 232 338 L 232 340 L 234 340 L 239 349 L 239 360 L 240 361 L 240 385 L 234 412 L 231 417 L 232 418 Q 231 420 230 418 L 229 420 L 227 421 L 227 423 L 222 430 L 219 432 Q 216 437 213 436 Q 214 438 212 437 L 210 437 L 211 439 L 205 443 L 202 442 Q 199 443 201 445 L 200 444 L 198 447 L 198 445 Q 194 444 196 448 L 194 449 Q 189 448 190 451 L 186 453 L 184 452 L 184 454 L 182 455 L 180 454 L 179 456 L 159 463 L 157 463 L 156 465 L 153 464 Q 150 463 151 466 L 150 467 L 144 468 L 141 469 L 139 468 L 139 470 L 119 475 Q 112 473 113 477 L 116 478 L 114 478 L 114 479 L 118 478 L 127 480 L 136 484 Q 138 485 136 487 L 139 488 L 139 486 L 140 489 L 142 488 L 143 491 Q 145 489 147 492 Q 149 491 148 494 L 151 494 L 151 496 L 153 495 L 157 498 L 167 501 L 168 503 L 169 501 L 180 503 L 182 503 L 184 504 L 192 503 L 195 504 L 197 503 Q 198 506 204 504 L 207 506 Q 209 505 208 508 L 211 509 L 213 509 L 212 508 L 212 507 L 217 510 L 214 511 L 217 511 L 219 511 L 223 513 Q 225 514 223 516 L 231 519 Q 235 521 232 523 L 235 524 L 234 523 L 238 525 Q 240 524 239 528 L 241 527 L 243 528 L 244 531 L 247 531 Q 249 530 248 533 L 250 532 L 249 534 Q 248 536 251 535 L 252 533 L 258 536 L 261 540 L 261 539 L 261 537 L 267 539 L 269 539 Q 271 542 278 541 L 278 543 L 280 542 L 281 543 L 279 544 L 284 544 L 283 543 L 286 542 L 286 544 L 288 543 L 300 543 L 301 544 L 305 543 L 307 544 L 305 544 L 305 545 L 312 545 L 308 544 L 313 542 L 316 543 L 329 539 L 331 540 L 331 538 L 342 536 L 340 535 L 347 531 L 350 530 Q 353 531 352 528 Q 353 525 355 527 L 355 526 Q 357 521 359 524 Q 362 525 360 521 L 363 520 L 363 522 L 364 522 Q 363 517 367 519 L 367 516 L 373 515 L 372 514 L 381 510 L 391 511 L 390 511 L 390 512 L 396 512 L 394 511 L 394 510 L 397 511 L 399 510 L 399 512 L 402 510 Q 408 508 407 512 L 413 512 L 415 510 Q 420 512 422 509 L 424 510 L 423 510 L 422 512 L 427 511 Q 428 513 429 511 L 426 510 L 431 508 L 433 508 L 439 505 L 440 508 L 440 504 L 447 502 L 449 502 L 449 500 L 456 499 L 455 498 L 459 495 L 461 496 L 460 495 L 462 495 L 462 494 L 466 491 Q 469 492 468 490 L 475 487 Q 473 485 477 483 L 476 486 L 479 485 L 478 484 Q 477 480 481 482 L 482 480 L 484 481 L 483 480 L 486 479 L 487 477 L 480 475 L 482 474 L 479 473 L 479 475 L 474 474 L 477 473 L 477 472 L 472 473 L 470 473 L 466 472 L 462 470 Q 457 471 458 469 L 457 469 L 447 466 Q 445 462 444 465 L 439 463 L 439 462 Q 440 458 436 460 L 437 463 L 435 461 L 425 458 L 420 456 L 421 454 L 419 453 L 419 455 L 417 454 Q 414 455 415 453 L 414 453 L 411 451 Q 408 452 409 449 L 405 448 Q 403 444 402 447 L 403 445 L 402 444 Q 400 448 398 444 Q 395 445 396 443 L 395 443 L 394 440 L 392 441 L 382 434 L 380 432 L 380 429 L 378 430 L 372 425 L 367 415 L 368 413 Q 369 410 366 411 L 362 397 L 364 393 L 362 392 L 360 385 L 360 359 L 361 358 Q 359 353 363 354 L 364 352 L 361 351 L 364 346 Q 363 343 367 344 L 367 342 Q 366 339 369 340 L 370 337 L 370 335 L 373 330 Q 372 327 375 328 L 374 327 Q 380 319 381 307 Q 384 305 382 304 L 384 292 L 386 292 L 385 291 L 385 290 L 389 291 L 391 288 L 392 290 L 392 287 Q 398 281 401 272 Q 400 269 403 270 L 402 268 L 407 250 L 407 245 L 407 243 L 408 236 L 408 234 L 410 230 L 411 221 L 411 217 Q 409 210 412 209 L 411 206 L 413 187 L 414 186 L 413 184 L 415 179 L 414 177 Q 412 171 416 172 Q 414 167 415 160 L 414 159 L 420 156 L 419 155 L 420 150 Q 417 149 418 145 L 418 143 L 416 140 L 416 136 L 414 130 L 416 130 L 413 129 L 410 117 L 409 117 L 408 116 L 408 114 L 406 113 L 406 111 L 398 100 L 396 98 L 394 94 L 390 92 L 387 88 L 386 90 L 384 88 L 382 86 L 377 80 L 374 79 L 374 78 L 366 74 Q 363 75 364 73 L 362 72 Q 359 73 360 71 L 359 71 L 349 66 L 345 66 L 343 64 L 336 64 Q 338 60 335 61 L 335 63 Q 331 64 332 61 L 330 62 L 323 60 Q 315 61 316 58 L 307 58 L 306 56 L 305 56 Z M 390 89 Q 388 92 391 91 L 390 89 Z M 191 116 L 189 118 L 191 118 L 191 116 Z M 189 118 L 188 121 L 189 121 L 189 118 Z M 185 170 L 184 174 L 185 174 L 185 170 Z M 416 190 L 414 193 L 416 192 L 416 190 Z M 201 277 L 200 281 L 201 281 L 201 277 Z M 212 432 L 212 434 L 214 433 L 212 432 Z M 134 468 L 132 470 L 135 470 Q 136 467 134 468 Z M 115 473 L 115 474 L 118 474 L 115 473 Z M 156 498 L 154 500 L 156 500 L 156 498 Z M 385 511 L 385 512 L 387 512 L 385 511 Z M 417 511 L 417 512 L 420 512 L 417 511 Z M 313 543 L 313 544 L 315 544 L 313 543 Z M 293 544 L 293 545 L 296 545 L 293 544 Z " /><path fill="rgb(228,228,228)" stroke="rgb(228,228,228)" stroke-width="1" opacity="1" d="M 295.5 161 L 308 173.5 L 308 175 L 312 176.5 L 310.5 177 L 304 171.5 Q 304.7 168.9 302 170 L 300.5 174 L 298 166.5 Q 300.3 165.3 297.5 164 Q 294.1 163.1 296 168.5 L 295 168.5 L 296 162.5 L 295.5 161 Z M 301 167 L 301 170 Q 304 169 301 167 Z " /><path fill="rgb(228,228,228)" stroke="rgb(228,228,228)" stroke-width="1" opacity="1" d="M 186.5 162 L 187 167.5 L 186 167.5 L 186.5 162 Z " /><path fill="rgb(228,228,228)" stroke="rgb(228,228,228)" stroke-width="1" opacity="1" d="M 235.5 170 L 236 174 Q 233.3 175.1 234 172.5 L 235.5 170 Z " /><path fill="rgb(228,228,228)" stroke="rgb(228,228,228)" stroke-width="1" opacity="1" d="M 237.5 171 L 246 182.5 L 244.5 185 L 244 183.5 Q 246.8 181.8 242.5 180 Q 239.5 180.9 241 176.5 L 238.5 175 L 237 175.5 L 238 172.5 L 237.5 171 Z " /><path fill="rgb(228,228,228)" stroke="rgb(228,228,228)" stroke-width="1" opacity="1" d="M 262.5 172 L 265 173.5 L 263.5 174 L 262.5 172 Z " /><path fill="rgb(228,228,228)" stroke="rgb(228,228,228)" stroke-width="1" opacity="1" d="M 297 172 Q 300 171 299 174 Q 296 175 297 172 Z " /><path fill="rgb(228,228,228)" stroke="rgb(228,228,228)" stroke-width="1" opacity="1" d="M 264.5 175 L 263.5 177 L 264.5 175 Z " /><path fill="rgb(228,228,228)" stroke="rgb(228,228,228)" stroke-width="1" opacity="1" d="M 298.5 175 L 300 175.5 L 297.5 179 L 297 176.5 L 298.5 175 Z " /><path fill="rgb(228,228,228)" stroke="rgb(228,228,228)" stroke-width="1" opacity="1" d="M 233.5 176 L 235 179.5 L 232.5 183 L 232 178.5 L 233.5 176 Z " /><path fill="rgb(228,228,228)" stroke="rgb(228,228,228)" stroke-width="1" opacity="1" d="M 269.5 177 Q 272.5 178.5 269.5 180 Q 267.3 179.3 268 181.5 L 266 181.5 L 265.5 183 L 264 180.5 Q 265.8 182.1 267.5 179 Q 270 179.7 269.5 177 Z " /><path fill="rgb(228,228,228)" stroke="rgb(228,228,228)" stroke-width="1" opacity="1" d="M 272.5 179 L 276 181.5 L 274.5 181 L 272.5 179 Z " /><path fill="rgb(228,228,228)" stroke="rgb(228,228,228)" stroke-width="1" opacity="1" d="M 320.5 182 L 323 183.5 L 321.5 183 L 320.5 182 Z " /><path fill="rgb(228,228,228)" stroke="rgb(228,228,228)" stroke-width="1" opacity="1" d="M 279.5 183 L 285 186.5 L 283.5 187 L 279.5 183 Z " /><path fill="rgb(228,228,228)" stroke="rgb(228,228,228)" stroke-width="1" opacity="1" d="M 231.5 184 L 232 187.5 L 231 187.5 L 231.5 184 Z " /><path fill="rgb(228,228,228)" stroke="rgb(228,228,228)" stroke-width="1" opacity="1" d="M 266.5 184 L 268 188.5 L 266.5 192 L 266.5 184 Z " /><path fill="rgb(228,228,228)" stroke="rgb(228,228,228)" stroke-width="1" opacity="1" d="M 299.5 184 L 300 186.5 L 299 186.5 L 299.5 184 Z " /><path fill="rgb(228,228,228)" stroke="rgb(228,228,228)" stroke-width="1" opacity="1" d="M 324.5 184 L 331 187.5 L 329.5 188 Q 324.9 186.8 324.5 184 Z " /><path fill="rgb(228,228,228)" stroke="rgb(228,228,228)" stroke-width="1" opacity="1" d="M 249.5 185 Q 251.8 184.3 251 186.5 Q 249.5 189.5 248 186.5 L 249.5 185 Z " /><path fill="rgb(228,228,228)" stroke="rgb(228,228,228)" stroke-width="1" opacity="1" d="M 252.5 187 L 265 197.5 L 266 199.5 L 264 200 Q 265.5 196.2 262.5 197 L 252.5 187 Z " /><path fill="rgb(228,228,228)" stroke="rgb(228,228,228)" stroke-width="1" opacity="1" d="M 297.5 187 L 298 196 L 293 192.5 L 297 194.5 L 297.5 187 Z " /><path fill="rgb(228,228,228)" stroke="rgb(228,228,228)" stroke-width="1" opacity="1" d="M 375.5 187 L 376 231.5 L 374.5 238 L 373 232.5 L 375 230.5 L 375 205.5 L 375 203.5 L 375 191.5 L 374 189.5 L 375.5 187 Z " /><path fill="rgb(228,228,228)" stroke="rgb(228,228,228)" stroke-width="1" opacity="1" d="M 217.5 188 Q 220.5 189.5 217.5 191 L 217.5 188 Z " /><path fill="rgb(228,228,228)" stroke="rgb(228,228,228)" stroke-width="1" opacity="1" d="M 288.5 188 L 291.5 192 L 288 191.5 L 290 190.5 L 288.5 188 Z " /><path fill="rgb(228,228,228)" stroke="rgb(228,228,228)" stroke-width="1" opacity="1" d="M 333.5 189 L 334 191 L 332 190.5 L 333.5 189 Z " /><path fill="rgb(228,228,228)" stroke="rgb(228,228,228)" stroke-width="1" opacity="1" d="M 188.5 190 L 189 192.5 L 188 192.5 L 188.5 190 Z " /><path fill="rgb(228,228,228)" stroke="rgb(228,228,228)" stroke-width="1" opacity="1" d="M 220.5 190 L 223 191.5 L 221.5 192 L 219 191.5 L 220.5 190 Z " /><path fill="rgb(228,228,228)" stroke="rgb(228,228,228)" stroke-width="1" opacity="1" d="M 336.5 190 L 339 191.5 L 337.5 192 L 336.5 190 Z " /><path fill="rgb(228,228,228)" stroke="rgb(228,228,228)" stroke-width="1" opacity="1" d="M 224.5 192 L 230.5 194 L 232 193.5 L 231.5 196 L 225.5 194 L 224.5 192 Z " /><path fill="rgb(228,228,228)" stroke="rgb(228,228,228)" stroke-width="1" opacity="1" d="M 341.5 193 L 343 193.5 L 340.5 195 L 341.5 193 Z " /><path fill="rgb(228,228,228)" stroke="rgb(228,228,228)" stroke-width="1" opacity="1" d="M 348.5 196 L 352 198.5 L 350.5 198 L 348.5 196 Z " /><path fill="rgb(228,228,228)" stroke="rgb(228,228,228)" stroke-width="1" opacity="1" d="M 353.5 199 L 356 199.5 L 353.5 200 L 353.5 199 Z " /><path fill="rgb(228,228,228)" stroke="rgb(228,228,228)" stroke-width="1" opacity="1" d="M 362.5 202 Q 365.1 201.3 364 204 L 360 203.5 L 362.5 202 Z " /><path fill="rgb(228,228,228)" stroke="rgb(228,228,228)" stroke-width="1" opacity="1" d="M 365.5 203 L 373 204.5 L 368.5 205 L 365.5 204 L 365.5 203 Z " /><path fill="rgb(228,228,228)" stroke="rgb(228,228,228)" stroke-width="1" opacity="1" d="M 215.5 204 L 216 208.5 L 215 208.5 L 215.5 204 Z " /><path fill="rgb(228,228,228)" stroke="rgb(228,228,228)" stroke-width="1" opacity="1" d="M 214.5 212 L 215 235.5 L 214 235.5 L 214.5 212 Z " /><path fill="rgb(228,228,228)" stroke="rgb(228,228,228)" stroke-width="1" opacity="1" d="M 190.5 216 L 191 219.5 L 190 219.5 L 190.5 216 Z " /><path fill="rgb(228,228,228)" stroke="rgb(228,228,228)" stroke-width="1" opacity="1" d="M 373.5 221 L 374 227.5 L 373 227.5 L 373.5 221 Z " /><path fill="rgb(228,228,228)" stroke="rgb(228,228,228)" stroke-width="1" opacity="1" d="M 406.5 239 L 407 241.5 L 406 241.5 L 406.5 239 Z " /><path fill="rgb(228,228,228)" stroke="rgb(228,228,228)" stroke-width="1" opacity="1" d="M 194.5 240 L 195 242.5 L 194 242.5 L 194.5 240 Z " /><path fill="rgb(228,228,228)" stroke="rgb(228,228,228)" stroke-width="1" opacity="1" d="M 374.5 240 L 375 246.5 L 374 246.5 L 374.5 240 Z " /><path fill="rgb(228,228,228)" stroke="rgb(228,228,228)" stroke-width="1" opacity="1" d="M 215.5 248 L 216 250.5 L 215 250.5 L 215.5 248 Z " /><path fill="rgb(228,228,228)" stroke="rgb(228,228,228)" stroke-width="1" opacity="1" d="M 372.5 252 Q 374.9 256.1 374 263.5 L 373 263.5 L 372.5 252 Z " /><path fill="rgb(228,228,228)" stroke="rgb(228,228,228)" stroke-width="1" opacity="1" d="M 215.5 253 L 217 259.5 L 215 259.5 L 214.5 264 L 214 259.5 L 216 256.5 L 213 257.5 L 213 255.5 L 213.5 254 L 214.5 256 L 215.5 253 Z " /><path fill="rgb(228,228,228)" stroke="rgb(228,228,228)" stroke-width="1" opacity="1" d="M 372.5 268 L 373 271.5 L 372 271.5 L 372.5 268 Z " /><path fill="rgb(228,228,228)" stroke="rgb(228,228,228)" stroke-width="1" opacity="1" d="M 215.5 269 L 217 283.5 L 216 283.5 L 215.5 269 Z " /><path fill="rgb(228,228,228)" stroke="rgb(228,228,228)" stroke-width="1" opacity="1" d="M 370.5 284 L 371 288.5 L 370 288.5 L 370.5 284 Z " /><path fill="rgb(228,228,228)" stroke="rgb(228,228,228)" stroke-width="1" opacity="1" d="M 219.5 287 L 223 291.5 L 219.5 292 L 215 289.5 L 216.5 289 Q 217.8 291.3 219 288.5 L 219.5 287 Z " /><path fill="rgb(228,228,228)" stroke="rgb(228,228,228)" stroke-width="1" opacity="1" d="M 369.5 292 L 370 295.5 L 369 295.5 L 369.5 292 Z " /><path fill="rgb(228,228,228)" stroke="rgb(228,228,228)" stroke-width="1" opacity="1" d="M 218.5 296 Q 221.9 295.1 220 300.5 L 219 300.5 L 218.5 296 Z " /><path fill="rgb(228,228,228)" stroke="rgb(228,228,228)" stroke-width="1" opacity="1" d="M 368.5 297 L 369 300.5 L 368 300.5 L 368.5 297 Z " /><path fill="rgb(228,228,228)" stroke="rgb(228,228,228)" stroke-width="1" opacity="1" d="M 367.5 304 L 368 307.5 L 367 307.5 L 367.5 304 Z " /><path fill="rgb(228,228,228)" stroke="rgb(228,228,228)" stroke-width="1" opacity="1" d="M 222.5 306 L 223 307.5 L 221 308.5 L 222.5 306 Z " /><path fill="rgb(228,228,228)" stroke="rgb(228,228,228)" stroke-width="1" opacity="1" d="M 366.5 310 L 367 312.5 L 366 312.5 L 366.5 310 Z " /><path fill="rgb(228,228,228)" stroke="rgb(228,228,228)" stroke-width="1" opacity="1" d="M 225.5 320 L 228 320.5 L 226.5 323 L 225.5 320 Z " /><path fill="rgb(228,228,228)" stroke="rgb(228,228,228)" stroke-width="1" opacity="1" d="M 361.5 324 L 363 328.5 L 361.5 331 L 361 329.5 L 361 327.5 L 361.5 324 Z " /><path fill="rgb(228,228,228)" stroke="rgb(228,228,228)" stroke-width="1" opacity="1" d="M 231.5 327 L 232 328.5 L 231 331.5 L 231.5 333 L 229 328 L 231.5 327 Z " /><path fill="rgb(228,228,228)" stroke="rgb(228,228,228)" stroke-width="1" opacity="1" d="M 356.5 334 L 357 338.5 L 356 338.5 L 356.5 334 Z " /><path fill="rgb(228,228,228)" stroke="rgb(228,228,228)" stroke-width="1" opacity="1" d="M 233.5 336 L 236 337.5 L 238 343.5 L 237 343.5 Q 234.2 341.5 235 337 L 233.5 336 Z " /><path fill="rgb(228,228,228)" stroke="rgb(228,228,228)" stroke-width="1" opacity="1" d="M 359.5 337 L 359 338.5 L 358.5 341 L 358 338.5 L 359.5 337 Z " /><path fill="rgb(228,228,228)" stroke="rgb(228,228,228)" stroke-width="1" opacity="1" d="M 356.5 340 L 358 342.5 L 356.5 346 L 356.5 340 Z " /><path fill="rgb(228,228,228)" stroke="rgb(228,228,228)" stroke-width="1" opacity="1" d="M 239.5 343 L 240 345.5 L 239 345.5 L 239.5 343 Z " /><path fill="rgb(228,228,228)" stroke="rgb(228,228,228)" stroke-width="1" opacity="1" d="M 353.5 347 L 354.5 349 L 356 348.5 L 354.5 351 Q 352 350 353.5 347 Z " /><path fill="rgb(228,228,228)" stroke="rgb(228,228,228)" stroke-width="1" opacity="1" d="M 360.5 349 L 361 351.5 L 360 351.5 L 360.5 349 Z " /><path fill="rgb(228,228,228)" stroke="rgb(228,228,228)" stroke-width="1" opacity="1" d="M 241.5 350 L 243.5 353 L 241.5 350 Z " /><path fill="rgb(228,228,228)" stroke="rgb(228,228,228)" stroke-width="1" opacity="1" d="M 352.5 351 Q 355.3 352.3 353 353.5 L 352.5 355 L 352 353.5 L 352.5 351 Z " /><path fill="rgb(228,228,228)" stroke="rgb(228,228,228)" stroke-width="1" opacity="1" d="M 246.5 356 L 247.5 358 L 246.5 356 Z " /><path fill="rgb(228,228,228)" stroke="rgb(228,228,228)" stroke-width="1" opacity="1" d="M 349.5 356 L 349 357.5 L 348.5 362 L 348 357.5 L 349.5 356 Z " /><path fill="rgb(228,228,228)" stroke="rgb(228,228,228)" stroke-width="1" opacity="1" d="M 248.5 359 L 256 365.5 L 253 365.5 L 248.5 359 Z " /><path fill="rgb(228,228,228)" stroke="rgb(228,228,228)" stroke-width="1" opacity="1" d="M 240.5 360 L 241 367.5 L 240 367.5 L 240.5 360 Z " /><path fill="rgb(228,228,228)" stroke="rgb(228,228,228)" stroke-width="1" opacity="1" d="M 344.5 366 L 345 367.5 L 340.5 371 L 340.5 370 L 344 367.5 L 344.5 366 Z " /><path fill="rgb(228,228,228)" stroke="rgb(228,228,228)" stroke-width="1" opacity="1" d="M 257.5 368 L 266 375.5 L 264.5 375 L 257.5 368 Z " /><path fill="rgb(228,228,228)" stroke="rgb(228,228,228)" stroke-width="1" opacity="1" d="M 266.5 373 Q 268.8 372.3 268 374.5 L 266.5 373 Z " /><path fill="rgb(228,228,228)" stroke="rgb(228,228,228)" stroke-width="1" opacity="1" d="M 336 373 L 338 373.5 L 336 374.5 L 336 373 Z " /><path fill="rgb(228,228,228)" stroke="rgb(228,228,228)" stroke-width="1" opacity="1" d="M 267.5 376 L 268.5 378 L 267.5 376 Z " /><path fill="rgb(228,228,228)" stroke="rgb(228,228,228)" stroke-width="1" opacity="1" d="M 270.5 376 Q 273.5 377.5 270.5 379 L 270.5 376 Z " /><path fill="rgb(228,228,228)" stroke="rgb(228,228,228)" stroke-width="1" opacity="1" d="M 327.5 376 L 331 377 L 330.5 379 L 329 378.5 L 327.5 381 L 328 379.5 L 329 377.5 L 327.5 376 Z " /><path fill="rgb(228,228,228)" stroke="rgb(228,228,228)" stroke-width="1" opacity="1" d="M 276.5 380 L 281 381.5 L 279 382.5 L 279.5 384 L 277 382.5 L 277.5 381 L 276.5 380 Z " /><path fill="rgb(228,228,228)" stroke="rgb(228,228,228)" stroke-width="1" opacity="1" d="M 321 382 L 324 382.5 L 321.5 384 L 321 382 Z " /><path fill="rgb(228,228,228)" stroke="rgb(228,228,228)" stroke-width="1" opacity="1" d="M 291.5 385 L 296 385.5 L 289.5 387 L 289.5 386 L 291.5 385 Z " /><path fill="rgb(228,228,228)" stroke="rgb(228,228,228)" stroke-width="1" opacity="1" d="M 304.5 385 L 312 386.5 Q 306.4 389.4 296.5 388 L 296.5 387 L 308 386.5 Q 303.6 386.9 304.5 385 Z " /><path fill="rgb(229,229,229)" stroke="rgb(229,229,229)" stroke-width="1" opacity="1" d="M 211.5 91 L 207.5 96 L 211.5 91 Z " /><path fill="rgb(229,229,229)" stroke="rgb(229,229,229)" stroke-width="1" opacity="1" d="M 186.5 157 L 187 159.5 L 186 159.5 L 186.5 157 Z " /><path fill="rgb(229,229,229)" stroke="rgb(229,229,229)" stroke-width="1" opacity="1" d="M 295.5 162 L 296 164 L 299 165.5 L 298 167.5 L 299.5 170 L 300.5 167 Q 303.8 168.8 300 170.5 L 300.5 174 L 302 170 Q 304.7 168.9 304 171.5 Q 306.5 176.3 309 174.5 L 308.5 176 L 320 181 Q 318.9 183.7 321.5 183 L 333 189.5 L 332.5 191 L 335.5 190 L 353.5 200 L 362 202.5 L 360 203.5 L 363.5 204 L 365.5 204 L 372.5 205 L 372.5 204 Q 369.5 204.9 371 200.5 L 374.5 191 L 375 203.5 L 375 205.5 L 375 230.5 L 373 233.5 L 375 239.5 L 374 240.5 L 373.5 256 L 372.5 252 L 372 257.5 L 373 258.5 L 373 267.5 L 372 268.5 L 372 279.5 L 370 284.5 L 370 291.5 L 368 297.5 L 367 309.5 L 362.5 326 L 361.5 324 L 361 327.5 L 361 329.5 L 360 336.5 Q 357.3 337.8 357.5 342 L 356.5 340 L 356 347.5 L 354.5 349 L 353.5 347 L 353 349.5 L 354 351.5 L 349.5 360 L 348.5 357 L 348 364 L 346 364 L 346 366 Q 343.3 364.9 344 367.5 L 340 370 L 338.5 373 L 336 373 Q 337.7 377.1 333.5 376 Q 332 379.5 330.5 377 L 329 377.5 L 329.5 379 L 328 378.5 L 326.5 381 L 321 382 Q 322.3 385.3 317.5 384 L 307.5 387 L 292.5 387 L 292.5 386 L 296 385.5 L 291.5 385 L 286.5 386 L 279 382.5 L 281 381.5 L 278.5 381 L 276.5 382 Q 263.7 375.3 254 365.5 L 254.5 364 L 248 358.5 L 246.5 356 Q 244.3 356.8 245 354.5 L 240.5 349 L 239.5 352 Q 239.8 346.8 237 344.5 L 238 342.5 L 236 342.5 L 237 340.5 L 235.5 337 L 234.5 340 L 233 337.5 L 235 336.5 L 232 336 L 230 332.5 L 232 327.5 L 230.5 328 Q 227.2 329.1 228 326.5 L 226 323.5 L 228 320.5 L 225 321.5 L 225.5 320 Q 222.5 320.9 224 316.5 L 223 313.5 L 221 309.5 L 223 306.5 L 221.5 307 Q 219.3 307.8 220 305.5 L 220 303.5 L 219 301.5 L 220 296 Q 217 297.3 218 293.5 L 217 291 L 222.5 292 L 220 288.5 L 219.5 287 L 217.5 290 L 217 276.5 L 216 275.5 L 214 257.5 L 215 257.5 L 216.5 260 L 217 256.5 L 215 247.5 L 215 209.5 L 216 208.5 L 217 191.5 L 218.5 190 L 227.5 195 L 230.5 195 Q 233.3 193.8 231 192.5 L 232 183.5 L 235 179.5 L 234 174 Q 237.3 175.3 236 170.5 L 237 170.5 L 238 173.5 L 237 175.5 L 238.5 175 L 241 176.5 Q 239.5 180.9 242.5 180 Q 244.7 184.3 247 182.5 L 249 185.5 L 264 197 Q 262.3 201.5 267.5 200 L 267 198.5 Q 265.5 191 268 187.5 L 263 174 L 269 177.5 Q 269.8 179.8 267.5 179 Q 264.5 180.5 267.5 182 L 268 180 L 271.5 179 L 290 190.5 L 288 191.5 L 292.5 192 L 298 196 L 298 178.5 L 300 175.5 L 298.5 175 L 297 175.5 Q 296.3 172.9 299 174 L 299 172 Q 296.3 173.1 297 170.5 L 295.5 162 Z M 300 184 L 299 187 L 300 187 L 300 184 Z M 374 221 L 373 228 L 374 228 L 374 221 Z M 357 334 L 356 339 L 357 339 L 357 334 Z M 240 343 L 239 346 L 240 346 L 240 343 Z M 267 373 L 268 375 Q 269 372 267 373 Z M 305 385 L 305 386 L 308 386 L 305 385 Z " /><path fill="rgb(229,229,229)" stroke="rgb(229,229,229)" stroke-width="1" opacity="1" d="M 413.5 177 L 414 179.5 L 413 179.5 L 413.5 177 Z " /><path fill="rgb(229,229,229)" stroke="rgb(229,229,229)" stroke-width="1" opacity="1" d="M 410.5 208 L 411 211.5 L 410 211.5 L 410.5 208 Z " /><path fill="rgb(229,229,229)" stroke="rgb(229,229,229)" stroke-width="1" opacity="1" d="M 391.5 286 L 390.5 288 L 391.5 286 Z " /><path fill="rgb(229,229,229)" stroke="rgb(229,229,229)" stroke-width="1" opacity="1" d="M 240.5 368 L 241 371.5 L 240 371.5 L 240.5 368 Z " /><path fill="rgb(229,229,229)" stroke="rgb(229,229,229)" stroke-width="1" opacity="1" d="M 359.5 373 L 360 379.5 L 359 379.5 L 359.5 373 Z " /><path fill="rgb(229,229,229)" stroke="rgb(229,229,229)" stroke-width="1" opacity="1" d="M 240.5 380 L 241 383.5 L 240 383.5 L 240.5 380 Z " /><path fill="rgb(217,217,217)" stroke="rgb(217,217,217)" stroke-width="1" opacity="1" d="M 379.5 84 L 384.5 90 L 379.5 84 Z " /><path fill="rgb(217,217,217)" stroke="rgb(217,217,217)" stroke-width="1" opacity="1" d="M 216.5 89 Q 218.8 88.3 218 90.5 Q 216.5 93.5 215 90.5 L 216.5 89 Z " /><path fill="rgb(217,217,217)" stroke="rgb(217,217,217)" stroke-width="1" opacity="1" d="M 387.5 90 L 388.5 92 L 387.5 90 Z " /><path fill="rgb(217,217,217)" stroke="rgb(217,217,217)" stroke-width="1" opacity="1" d="M 204.5 99 L 203.5 101 L 204.5 99 Z " /><path fill="rgb(217,217,217)" stroke="rgb(217,217,217)" stroke-width="1" opacity="1" d="M 292.5 156 L 293 158 L 296 159.5 Q 295.3 161.8 297.5 161 L 299 164 L 308.5 172 Q 317.2 173.8 321.5 180 L 353.5 196 L 360.5 197 Q 363.2 200.8 369 200 L 369 193.5 L 373.5 181 L 376 186.5 L 371 198.5 L 371 204 L 352.5 199 L 323.5 184 L 311 175.5 L 310.5 174 L 309.5 175 L 295 161.5 L 295 168.5 L 297 171.5 L 298 186.5 L 296.5 195 L 288.5 188 L 265 175 L 265 172 Q 259.8 174.1 261 169.5 L 260.5 168 L 275.5 179 L 287.5 184 L 292 188.5 L 293.5 191 L 295 190.5 L 295 169.5 L 293 164.5 L 293 162.5 L 292.5 156 Z " /><path fill="rgb(217,217,217)" stroke="rgb(217,217,217)" stroke-width="1" opacity="1" d="M 233 166 L 235 166 L 235 168 Q 237.7 166.9 237 169.5 L 238.5 172 L 235 170 Q 236.1 172.7 233.5 172 L 234 173.5 L 231 184.5 L 231 194 Q 222.8 193 217.5 188 L 215 211.5 L 214 212.5 L 214 235.5 L 215 236.5 L 215 250.5 L 216 252.5 L 215 255.5 L 216 257.5 L 215 257.5 L 214.5 256 Q 211.8 257.3 214 258.5 L 215 275.5 L 217 288 L 213.5 289 L 207 283.5 L 208 281.5 L 205 280.5 Q 200.5 274 199 264.5 L 199.5 263 Q 196.9 263.8 198 260.5 L 199 259.5 L 197 255.5 L 194 239.5 L 203.5 239 Q 210 242.5 212.5 250 L 213 244.5 L 212 243.5 L 212 204.5 L 213 203.5 L 214 188.5 L 215.5 184 L 227.5 190 L 229 178.5 L 233 166 Z " /><path fill="rgb(217,217,217)" stroke="rgb(217,217,217)" stroke-width="1" opacity="1" d="M 239.5 173 L 256 187.5 Q 255.2 190.1 258.5 189 L 264.5 196 L 265 188.5 Q 262.5 187 264 181.5 L 265 181.5 L 267 199.5 L 265 198.5 L 263.5 196 L 251 187 Q 252.1 184.3 249.5 185 Q 242.3 179.7 239.5 173 Z " /><path fill="rgb(217,217,217)" stroke="rgb(217,217,217)" stroke-width="1" opacity="1" d="M 262.5 173 L 264 179.5 L 263 179.5 L 262.5 173 Z " /><path fill="rgb(217,217,217)" stroke="rgb(217,217,217)" stroke-width="1" opacity="1" d="M 413.5 174 L 414 176.5 L 413 176.5 L 413.5 174 Z " /><path fill="rgb(217,217,217)" stroke="rgb(217,217,217)" stroke-width="1" opacity="1" d="M 187.5 178 L 188 180.5 L 187 180.5 L 187.5 178 Z " /><path fill="rgb(217,217,217)" stroke="rgb(217,217,217)" stroke-width="1" opacity="1" d="M 189.5 188 L 188.5 190 L 189.5 188 Z " /><path fill="rgb(217,217,217)" stroke="rgb(217,217,217)" stroke-width="1" opacity="1" d="M 376.5 191 L 377 200.5 L 376 200.5 L 376.5 191 Z " /><path fill="rgb(217,217,217)" stroke="rgb(217,217,217)" stroke-width="1" opacity="1" d="M 189.5 197 L 190 200.5 L 189 200.5 L 189.5 197 Z " /><path fill="rgb(217,217,217)" stroke="rgb(217,217,217)" stroke-width="1" opacity="1" d="M 387 199 L 389 199.5 L 388 201.5 L 389 202.5 L 389 243.5 L 388 244.5 L 388 252.5 L 389 252.5 L 391 246.5 L 399.5 234 L 403.5 233 L 407 235.5 L 406 248 L 404 248.5 L 405 252.5 L 404 257.5 L 402 259.5 L 403 261.5 L 400 267.5 L 400 272 L 397 272.5 Q 400.5 274 398 275.5 Q 398.8 277.8 396.5 277 L 397 278.5 Q 391.6 281.3 393.5 284 L 392 283.5 Q 392.5 287.5 389.5 288 L 384 289 Q 384.5 294.3 381 296.5 L 382 301.5 L 380 304.5 L 380 306.5 L 378 314 L 376 314.5 L 378 315.5 L 376 316.5 L 377 318.5 Q 373.9 320.2 375.5 322 L 374 322.5 L 374 324.5 Q 370.9 334.9 364 341.5 Q 366.5 343 363 344.5 Q 363.8 346.8 361.5 346 L 359 350.5 L 354 359 L 351 359.5 L 351.5 361 Q 349.3 360.3 350 362.5 L 345 366.5 L 348 363.5 L 356 348.5 L 363 328.5 L 364 320.5 L 368 307.5 L 368 301.5 L 371 288.5 L 372 272.5 L 373 271.5 L 373 264.5 L 374 263.5 L 376.5 202 Q 378.5 205.5 384.5 205 Q 382.7 202.7 387 200.5 L 387 199 Z " /><path fill="rgb(217,217,217)" stroke="rgb(217,217,217)" stroke-width="1" opacity="1" d="M 190.5 210 L 191 215.5 L 190 215.5 L 190.5 210 Z " /><path fill="rgb(217,217,217)" stroke="rgb(217,217,217)" stroke-width="1" opacity="1" d="M 240.5 349 L 253 366 L 254.5 366 L 263.5 375 L 279.5 384 L 284 385 L 284.5 387 L 288.5 386 L 296.5 388 L 307.5 388 L 321.5 384 L 340 373 Q 338.9 370.3 341.5 371 L 345 368.5 L 344 369.5 L 344 409.5 L 345 410.5 L 345 419.5 L 347 428.5 L 341.5 431 L 339.5 431 L 330.5 434 Q 329 431.5 327.5 435 L 321 437 L 319.5 440 L 316 440.5 L 316.5 442 Q 314.3 441.3 315 443.5 Q 309.5 448.6 308 457 L 306 457.5 L 308 458.5 L 304 466.5 L 304 468.5 L 303 473 Q 300.3 471.9 301 474.5 Q 299.8 477 296 476 Q 297.1 473.3 294.5 474 L 292 469.5 L 287 453.5 Q 283.9 445.1 277.5 440 L 274.5 438 L 265.5 433 L 254.5 431 L 247 428 L 246.5 426 L 244.5 426 L 242.5 425 L 240.5 425 L 232 420.5 L 234 414.5 L 234.5 412 L 236 412.5 L 235 408.5 L 238 402.5 L 238 398.5 L 242 379.5 L 242 372.5 L 241 371.5 L 240 353.5 L 241 351.5 L 240.5 349 Z " /><path fill="rgb(217,217,217)" stroke="rgb(217,217,217)" stroke-width="1" opacity="1" d="M 359.5 365 L 360 367.5 L 359 367.5 L 359.5 365 Z " /><path fill="rgb(217,217,217)" stroke="rgb(217,217,217)" stroke-width="1" opacity="1" d="M 359.5 380 L 360 384.5 L 359 384.5 L 359.5 380 Z " /><path fill="rgb(121,121,121)" stroke="rgb(121,121,121)" stroke-width="1" opacity="1" d="M 367.5 420 L 369 420.5 L 368.5 422 L 371 423.5 L 379.5 434 Q 409.1 456.9 450 468.5 L 448 469 L 448.5 471 L 453.5 469 L 464.5 473 L 481.5 476 L 484 477.5 L 459.5 494 L 437.5 504 L 436.5 502 L 438.5 503 L 441 501.5 L 437.5 500 L 436 500.5 L 436.5 499 L 414.5 488 L 395.5 476 L 387.5 469 L 384 468 L 382.5 465 L 379.5 464 L 358.5 444 L 357 444 Q 356.1 437.6 350 434.5 L 348 429 L 353.5 428 L 367.5 420 Z M 409 453 L 410 455 L 411 455 L 409 453 Z M 430 463 L 430 464 L 432 464 L 430 463 Z M 470 475 L 470 476 L 472 476 L 470 475 Z M 480 477 L 479 479 L 481 478 L 480 477 Z M 450 496 L 448 497 L 448 498 L 451 497 L 450 496 Z " /><path fill="rgb(121,121,121)" stroke="rgb(121,121,121)" stroke-width="1" opacity="1" d="M 239.5 426 L 243 427.5 L 241.5 428 L 239.5 426 Z " /><path fill="rgb(121,121,121)" stroke="rgb(121,121,121)" stroke-width="1" opacity="1" d="M 223.5 429 L 221.5 432 L 223.5 429 Z " /><path fill="rgb(121,121,121)" stroke="rgb(121,121,121)" stroke-width="1" opacity="1" d="M 219.5 433 L 218.5 435 L 219.5 433 Z " /><path fill="rgb(121,121,121)" stroke="rgb(121,121,121)" stroke-width="1" opacity="1" d="M 336.5 433 L 339 433.5 L 335.5 435 L 336.5 433 Z " /><path fill="rgb(121,121,121)" stroke="rgb(121,121,121)" stroke-width="1" opacity="1" d="M 262.5 434 L 265 434.5 L 262.5 435 L 262.5 434 Z " /><path fill="rgb(121,121,121)" stroke="rgb(121,121,121)" stroke-width="1" opacity="1" d="M 266.5 435 L 270 436.5 L 268.5 437 L 266.5 435 Z " /><path fill="rgb(121,121,121)" stroke="rgb(121,121,121)" stroke-width="1" opacity="1" d="M 326.5 436 L 325.5 438 L 324 437.5 L 326.5 436 Z " /><path fill="rgb(121,121,121)" stroke="rgb(121,121,121)" stroke-width="1" opacity="1" d="M 214.5 437 L 215.5 439 L 213 438.5 L 214.5 437 Z " /><path fill="rgb(121,121,121)" stroke="rgb(121,121,121)" stroke-width="1" opacity="1" d="M 271.5 437 L 272.5 439 L 271.5 437 Z " /><path fill="rgb(121,121,121)" stroke="rgb(121,121,121)" stroke-width="1" opacity="1" d="M 211.5 439 L 212 441 L 209.5 442 L 211.5 439 Z " /><path fill="rgb(121,121,121)" stroke="rgb(121,121,121)" stroke-width="1" opacity="1" d="M 207.5 442 L 206.5 444 L 205 443.5 L 207.5 442 Z " /><path fill="rgb(121,121,121)" stroke="rgb(121,121,121)" stroke-width="1" opacity="1" d="M 277.5 442 L 278.5 444 L 277.5 442 Z " /><path fill="rgb(121,121,121)" stroke="rgb(121,121,121)" stroke-width="1" opacity="1" d="M 202.5 445 L 201.5 447 L 202.5 445 Z " /><path fill="rgb(121,121,121)" stroke="rgb(121,121,121)" stroke-width="1" opacity="1" d="M 280.5 445 L 282.5 448 L 280.5 445 Z " /><path fill="rgb(121,121,121)" stroke="rgb(121,121,121)" stroke-width="1" opacity="1" d="M 315.5 445 L 313.5 448 L 315.5 445 Z " /><path fill="rgb(121,121,121)" stroke="rgb(121,121,121)" stroke-width="1" opacity="1" d="M 193.5 450 L 192.5 452 L 191 451.5 L 193.5 450 Z " /><path fill="rgb(121,121,121)" stroke="rgb(121,121,121)" stroke-width="1" opacity="1" d="M 310.5 454 L 312 456.5 L 310 455.5 L 310.5 454 Z " /><path fill="rgb(121,121,121)" stroke="rgb(121,121,121)" stroke-width="1" opacity="1" d="M 182.5 455 L 184 455.5 L 180.5 457 L 180.5 456 L 182.5 455 Z " /><path fill="rgb(121,121,121)" stroke="rgb(121,121,121)" stroke-width="1" opacity="1" d="M 178.5 457 L 176.5 460 L 175.5 458 Q 177 460.5 178.5 457 Z " /><path fill="rgb(121,121,121)" stroke="rgb(121,121,121)" stroke-width="1" opacity="1" d="M 170.5 460 Q 172.8 459.3 172 461.5 L 170.5 460 Z " /><path fill="rgb(121,121,121)" stroke="rgb(121,121,121)" stroke-width="1" opacity="1" d="M 307.5 462 L 308 464.5 L 307 464.5 L 307.5 462 Z " /><path fill="rgb(121,121,121)" stroke="rgb(121,121,121)" stroke-width="1" opacity="1" d="M 162.5 463 L 165 463.5 L 162.5 464 L 162.5 463 Z " /><path fill="rgb(121,121,121)" stroke="rgb(121,121,121)" stroke-width="1" opacity="1" d="M 157.5 465 L 160 465.5 L 157.5 466 L 157.5 465 Z " /><path fill="rgb(121,121,121)" stroke="rgb(121,121,121)" stroke-width="1" opacity="1" d="M 154.5 466 L 157 467.5 L 155.5 467 L 151.5 468 L 151.5 467 L 154.5 466 Z " /><path fill="rgb(121,121,121)" stroke="rgb(121,121,121)" stroke-width="1" opacity="1" d="M 147.5 468 L 150 468.5 L 147.5 469 L 147.5 468 Z " /><path fill="rgb(121,121,121)" stroke="rgb(121,121,121)" stroke-width="1" opacity="1" d="M 305.5 469 L 306 470.5 L 304 471.5 L 305.5 469 Z " /><path fill="rgb(121,121,121)" stroke="rgb(121,121,121)" stroke-width="1" opacity="1" d="M 140.5 470 L 144 470.5 L 140.5 471 L 140.5 470 Z " /><path fill="rgb(121,121,121)" stroke="rgb(121,121,121)" stroke-width="1" opacity="1" d="M 129.5 473 L 132 473.5 L 129.5 474 L 129.5 473 Z " /><path fill="rgb(121,121,121)" stroke="rgb(121,121,121)" stroke-width="1" opacity="1" d="M 292.5 473 L 293.5 475 L 292.5 473 Z " /><path fill="rgb(121,121,121)" stroke="rgb(121,121,121)" stroke-width="1" opacity="1" d="M 121.5 475 L 123 475.5 L 118.5 477 L 118.5 476 L 121.5 475 Z " /><path fill="rgb(121,121,121)" stroke="rgb(121,121,121)" stroke-width="1" opacity="1" d="M 296.5 477 L 300 477.5 L 296.5 478 L 296.5 477 Z " /><path fill="rgb(121,121,121)" stroke="rgb(121,121,121)" stroke-width="1" opacity="1" d="M 125.5 478 L 129 479.5 L 127.5 479 Q 124.5 479.5 125.5 478 Z " /><path fill="rgb(121,121,121)" stroke="rgb(121,121,121)" stroke-width="1" opacity="1" d="M 133.5 481 L 134.5 483 L 133.5 481 Z " /><path fill="rgb(121,121,121)" stroke="rgb(121,121,121)" stroke-width="1" opacity="1" d="M 143.5 485 L 144.5 489 L 141 486.5 L 143.5 485 Z " /><path fill="rgb(121,121,121)" stroke="rgb(121,121,121)" stroke-width="1" opacity="1" d="M 154.5 494 L 155.5 496 L 154.5 494 Z " /><path fill="rgb(121,121,121)" stroke="rgb(121,121,121)" stroke-width="1" opacity="1" d="M 163.5 498 L 168 499.5 L 166.5 500 L 163.5 499 L 163.5 498 Z " /><path fill="rgb(121,121,121)" stroke="rgb(121,121,121)" stroke-width="1" opacity="1" d="M 173.5 500 L 180 500.5 L 173.5 501 L 173.5 500 Z " /><path fill="rgb(121,121,121)" stroke="rgb(121,121,121)" stroke-width="1" opacity="1" d="M 185.5 501 L 188 501.5 L 185.5 502 L 185.5 501 Z " /><path fill="rgb(121,121,121)" stroke="rgb(121,121,121)" stroke-width="1" opacity="1" d="M 189.5 501 L 194 501.5 L 189.5 502 L 189.5 501 Z " /><path fill="rgb(121,121,121)" stroke="rgb(121,121,121)" stroke-width="1" opacity="1" d="M 195.5 501 L 198 501.5 L 195.5 502 L 195.5 501 Z " /><path fill="rgb(121,121,121)" stroke="rgb(121,121,121)" stroke-width="1" opacity="1" d="M 200.5 502 L 204 502.5 L 200.5 503 L 200.5 502 Z " /><path fill="rgb(121,121,121)" stroke="rgb(121,121,121)" stroke-width="1" opacity="1" d="M 208.5 504 L 215 506.5 L 213.5 507 L 208.5 505 L 208.5 504 Z " /><path fill="rgb(121,121,121)" stroke="rgb(121,121,121)" stroke-width="1" opacity="1" d="M 433.5 504 L 432.5 506 L 431 505.5 L 433.5 504 Z " /><path fill="rgb(121,121,121)" stroke="rgb(121,121,121)" stroke-width="1" opacity="1" d="M 427.5 506 L 430 506.5 L 427.5 507 L 427.5 506 Z " /><path fill="rgb(121,121,121)" stroke="rgb(121,121,121)" stroke-width="1" opacity="1" d="M 388.5 507 L 396 507.5 L 388.5 508 L 388.5 507 Z " /><path fill="rgb(121,121,121)" stroke="rgb(121,121,121)" stroke-width="1" opacity="1" d="M 420.5 507 L 426 507.5 L 419.5 509 L 407.5 509 L 407.5 508 L 419.5 508 L 420.5 507 Z " /><path fill="rgb(121,121,121)" stroke="rgb(121,121,121)" stroke-width="1" opacity="1" d="M 218.5 508 L 219.5 510 L 218.5 508 Z " /><path fill="rgb(121,121,121)" stroke="rgb(121,121,121)" stroke-width="1" opacity="1" d="M 380.5 508 L 384 508.5 L 380.5 509 L 380.5 508 Z " /><path fill="rgb(121,121,121)" stroke="rgb(121,121,121)" stroke-width="1" opacity="1" d="M 399.5 508 L 405 508.5 L 399.5 509 L 399.5 508 Z " /><path fill="rgb(121,121,121)" stroke="rgb(121,121,121)" stroke-width="1" opacity="1" d="M 221.5 510 L 227 514.5 L 223.5 512 L 221.5 510 Z " /><path fill="rgb(121,121,121)" stroke="rgb(121,121,121)" stroke-width="1" opacity="1" d="M 366.5 512 L 367.5 514 L 370.5 512 L 369.5 514 L 360.5 520 L 362.5 517 L 367 514.5 L 366.5 512 Z " /><path fill="rgb(121,121,121)" stroke="rgb(121,121,121)" stroke-width="1" opacity="1" d="M 229.5 516 L 232 516.5 Q 229.9 519.8 229.5 516 Z " /><path fill="rgb(121,121,121)" stroke="rgb(121,121,121)" stroke-width="1" opacity="1" d="M 356.5 520 L 359 520.5 L 356 522.5 L 356.5 520 Z " /><path fill="rgb(121,121,121)" stroke="rgb(121,121,121)" stroke-width="1" opacity="1" d="M 237.5 522 L 239.5 525 L 237.5 522 Z " /><path fill="rgb(121,121,121)" stroke="rgb(121,121,121)" stroke-width="1" opacity="1" d="M 354.5 523 L 352.5 526 L 354.5 523 Z " /><path fill="rgb(121,121,121)" stroke="rgb(121,121,121)" stroke-width="1" opacity="1" d="M 242.5 524 L 242.5 527 Q 239.5 525.5 242.5 524 Z " /><path fill="rgb(121,121,121)" stroke="rgb(121,121,121)" stroke-width="1" opacity="1" d="M 346.5 528 L 348 528.5 L 340.5 533 L 340.5 530 L 342.5 531 L 346.5 528 Z " /><path fill="rgb(121,121,121)" stroke="rgb(121,121,121)" stroke-width="1" opacity="1" d="M 337.5 532 Q 340.5 533.5 337.5 535 L 336 534.5 L 338 533.5 L 337.5 532 Z " /><path fill="rgb(121,121,121)" stroke="rgb(121,121,121)" stroke-width="1" opacity="1" d="M 258.5 534 L 262 535.5 L 260.5 536 L 258.5 534 Z " /><path fill="rgb(121,121,121)" stroke="rgb(121,121,121)" stroke-width="1" opacity="1" d="M 263.5 536 L 266 536.5 L 263.5 537 L 263.5 536 Z " /><path fill="rgb(121,121,121)" stroke="rgb(121,121,121)" stroke-width="1" opacity="1" d="M 271.5 538 L 274 538.5 L 271.5 539 L 271.5 538 Z " /><path fill="rgb(121,121,121)" stroke="rgb(121,121,121)" stroke-width="1" opacity="1" d="M 323.5 538 L 327 538.5 L 323.5 539 L 323.5 538 Z " /><path fill="rgb(121,121,121)" stroke="rgb(121,121,121)" stroke-width="1" opacity="1" d="M 276.5 539 L 280 539.5 L 276.5 540 L 276.5 539 Z " /><path fill="rgb(121,121,121)" stroke="rgb(121,121,121)" stroke-width="1" opacity="1" d="M 281.5 540 L 286 540.5 L 281.5 541 L 281.5 540 Z " /><path fill="rgb(121,121,121)" stroke="rgb(121,121,121)" stroke-width="1" opacity="1" d="M 304.5 540 L 307 541.5 L 290.5 542 L 290.5 541 L 303.5 541 L 304.5 540 Z " /><path fill="rgb(121,121,121)" stroke="rgb(121,121,121)" stroke-width="1" opacity="1" d="M 311.5 540 L 317 540.5 L 311.5 541 L 311.5 540 Z " /><path fill="rgb(127,127,127)" stroke="rgb(127,127,127)" stroke-width="1" opacity="1" d="M 229.5 420 L 234 422.5 L 234.5 424 L 236.5 424 L 240 425.5 L 239.5 427 L 241.5 426 L 241.5 428 L 243.5 427 L 252.5 431 L 259 432 L 259.5 434 L 262.5 433 L 262.5 435 L 265.5 434 L 266 436 L 268.5 435 L 268.5 437 L 270.5 436 L 272.5 439 Q 274 436.5 275.5 440 L 282 445.5 Q 279.8 446.8 282.5 448 Q 284.8 447.3 284 449.5 L 284.5 452 Q 286.8 451.3 286 453.5 L 285.5 455 Q 288.1 454.2 287 457.5 L 289 462.5 L 288.5 464 Q 291.1 463.2 290 466.5 L 293 472.5 Q 290.8 473.7 293.5 475 L 300.5 476 Q 302.3 472.9 304 474.5 L 303 472.5 L 305 471.5 L 304.5 470 L 306 470.5 L 305 467.5 L 306.5 464 L 308 464.5 L 307 461.5 L 309.5 455 L 311 455.5 L 310 452.5 L 312 452.5 L 311 450.5 L 312 448 L 314 447.5 Q 311.2 445.8 315.5 444 Q 317.8 444.8 317 442.5 Q 319.5 438 326 437.5 L 325.5 436 L 327 436.5 Q 326.3 434.3 328.5 435 L 330.5 436 L 330.5 434 L 333.5 435 L 333.5 433 L 336 433.5 L 335.5 435 L 339 433.5 L 337 432.5 L 342.5 431 L 344.5 432 L 344.5 430 L 346.5 431 L 347.5 429 L 348.5 431 L 350.5 430 L 350.5 431 Q 348.3 430.3 349 432.5 L 356 440.5 L 357 444 L 384 466.5 Q 383.3 468.8 385.5 468 L 414.5 488 L 426.5 493 L 441 501.5 L 439 502.5 L 439.5 504 L 437 503 L 436.5 505 L 435 504.5 Q 435.8 506.8 433.5 506 L 431 505 L 430.5 507 L 427.5 506 L 427.5 508 L 420.5 507 L 420.5 508 L 423 508.5 L 420.5 509 L 419.5 508 L 407.5 508 L 407.5 509 L 414 509.5 L 405 510 Q 406.4 506 399.5 508 L 396.5 509 L 380.5 508 L 380.5 510 L 377 509 L 376.5 511 L 374.5 510 L 374.5 512 L 370.5 514 L 368.5 513 L 368.5 515 L 366.5 515 L 365 515.5 L 365.5 517 L 363.5 517 L 362 517.5 L 362.5 519 Q 361.2 516.8 360 519.5 L 358.5 522 Q 357.3 519.8 356 522.5 L 354.5 525 Q 353.3 522.7 352 525.5 L 351.5 527 L 350 526.5 L 348.5 529 L 346.5 528 L 345.5 531 L 343.5 530 L 343.5 532 L 341.5 531 L 341.5 533 L 340 532.5 L 339.5 534 L 337.5 534 L 334.5 536 L 332.5 537 L 331 536.5 L 330.5 538 L 328 537 L 327.5 539 L 323.5 538 L 323.5 539 L 325 539.5 L 322.5 540 L 320 539 Q 321.3 542 317.5 541 Q 316.3 538.8 311.5 540 L 311.5 541 L 314 541.5 L 307.5 542 L 304.5 540 L 303.5 541 L 285.5 542 L 285.5 540 L 278.5 541 L 278.5 540 L 280 539.5 L 276.5 539 L 273.5 540 L 273.5 538 L 268 539 L 267.5 537 L 265.5 538 L 265.5 536 L 262.5 537 L 262 535 L 259.5 536 L 259.5 534 L 256.5 535 L 256.5 533 L 254.5 534 L 253.5 532 L 252 532.5 L 251.5 531 L 250 531.5 L 249.5 530 L 248 530.5 L 247.5 529 L 245.5 529 L 243 527.5 L 242.5 526 Q 241.3 528.3 240 525.5 L 238.5 523 Q 236.8 525.8 235 521.5 L 234.5 520 Q 232.8 522.8 231 518.5 L 229.5 516 Q 228.3 518.3 227 515.5 L 225.5 513 Q 224.3 515.3 223 512.5 L 223.5 511 L 221.5 512 L 219.5 509 Q 218 511.5 216.5 508 L 213.5 506 L 211.5 505 L 210 505.5 L 210.5 504 L 207.5 505 L 203 503.5 L 203.5 502 L 195.5 503 Q 194.5 500 189.5 501 L 187.5 501 L 178.5 502 L 178.5 501 L 180 500.5 L 173.5 500 L 169.5 501 L 166.5 499 L 164.5 500 L 164.5 499 L 166 498.5 L 163.5 498 L 161.5 499 L 161.5 497 L 159.5 498 L 159 496 L 156.5 497 L 154.5 494 L 153 494.5 L 152.5 493 L 151 493.5 L 150.5 492 Q 149.3 494.3 148 491.5 L 147.5 490 Q 146.2 492.2 145 489.5 L 144.5 488 Q 143.3 490.3 142 487.5 L 142.5 486 Q 138.1 487.5 139 484.5 L 136.5 484 Q 134.3 484.8 135 482.5 Q 133.8 479.8 132.5 482 L 131 481.5 L 131.5 480 L 129.5 481 L 128.5 479 L 127 479.5 L 127.5 478 L 124.5 479 L 124 477 L 121.5 478 L 121 476 L 119 475.5 L 120.5 475 L 123 476 Q 121.8 473 125.5 474 L 127.5 475 L 127.5 473 L 131.5 474 L 131.5 472 L 134.5 473 L 135 471 L 139 472 L 139.5 470 L 143.5 471 L 143.5 470 L 142 469.5 L 144.5 469 L 146 469.5 L 146.5 468 L 149.5 469 L 149.5 467 L 153.5 468 L 153.5 467 L 152 466.5 L 153.5 466 L 155.5 467 L 155.5 465 L 159.5 466 L 159.5 465 L 158 464.5 L 161.5 463 L 164.5 464 L 164.5 462 L 166.5 463 L 167.5 461 L 169 461.5 L 169.5 460 L 172 461.5 Q 170.9 458.2 173.5 459 L 179 457.5 L 179.5 456 L 181.5 457 L 181.5 455 L 184 456 L 184.5 454 L 186 454.5 L 186.5 453 L 188 453.5 L 188.5 452 L 190 452.5 L 190.5 451 L 192.5 452 L 192.5 450 L 194 450.5 L 194.5 449 L 196 449.5 L 196.5 448 L 198 448.5 Q 197.3 446.3 199.5 447 Q 201.3 443.9 203 445.5 Q 202.1 442.5 206.5 444 L 206.5 442 L 208 442.5 L 208.5 441 L 210.5 441 Q 213.1 441.8 212 438.5 L 215 437.5 L 217.5 434 Q 218.8 436.3 220 433.5 Q 219.3 431.3 221.5 432 L 226.5 425 L 228 424.5 Q 225.7 423.3 228.5 422 L 231 421.5 L 229.5 420 Z M 297 477 L 297 478 L 300 478 L 297 477 Z M 196 501 L 196 502 L 198 502 L 196 501 Z M 389 507 L 389 508 L 396 508 L 389 507 Z " /><path fill="rgb(127,127,127)" stroke="rgb(127,127,127)" stroke-width="1" opacity="1" d="M 366.5 420 L 365.5 422 L 366.5 420 Z " /><path fill="rgb(127,127,127)" stroke="rgb(127,127,127)" stroke-width="1" opacity="1" d="M 355.5 426 L 356.5 428 L 355.5 426 Z " /><path fill="rgb(127,127,127)" stroke="rgb(127,127,127)" stroke-width="1" opacity="1" d="M 373.5 427 L 380 433.5 L 378.5 435 Q 375.8 433.8 378 432.5 L 373.5 427 Z " /><path fill="rgb(127,127,127)" stroke="rgb(127,127,127)" stroke-width="1" opacity="1" d="M 382.5 435 L 383.5 437 L 382.5 435 Z " /><path fill="rgb(127,127,127)" stroke="rgb(127,127,127)" stroke-width="1" opacity="1" d="M 392.5 444 L 394.5 445 L 396 444.5 L 393.5 446 L 392.5 444 Z " /><path fill="rgb(127,127,127)" stroke="rgb(127,127,127)" stroke-width="1" opacity="1" d="M 404.5 449 L 403.5 451 L 404.5 449 Z " /><path fill="rgb(127,127,127)" stroke="rgb(127,127,127)" stroke-width="1" opacity="1" d="M 410.5 452 L 410.5 455 L 408 453.5 L 410.5 452 Z " /><path fill="rgb(127,127,127)" stroke="rgb(127,127,127)" stroke-width="1" opacity="1" d="M 418.5 456 L 417.5 458 L 418.5 456 Z " /><path fill="rgb(127,127,127)" stroke="rgb(127,127,127)" stroke-width="1" opacity="1" d="M 428.5 462 L 432 463.5 L 429.5 464 L 428.5 462 Z " /><path fill="rgb(127,127,127)" stroke="rgb(127,127,127)" stroke-width="1" opacity="1" d="M 441.5 465 L 441.5 468 Q 438.5 466.5 441.5 465 Z " /><path fill="rgb(127,127,127)" stroke="rgb(127,127,127)" stroke-width="1" opacity="1" d="M 444.5 466 L 443.5 468 L 444.5 466 Z " /><path fill="rgb(127,127,127)" stroke="rgb(127,127,127)" stroke-width="1" opacity="1" d="M 450.5 468 L 451 470 L 449 470.5 L 449.5 472 L 448 469 L 450.5 468 Z " /><path fill="rgb(127,127,127)" stroke="rgb(127,127,127)" stroke-width="1" opacity="1" d="M 472.5 474 L 474 474.5 L 469.5 476 L 469.5 475 L 472.5 474 Z " /><path fill="rgb(127,127,127)" stroke="rgb(127,127,127)" stroke-width="1" opacity="1" d="M 482.5 476 L 485 477.5 L 483.5 477 L 482.5 476 Z " /><path fill="rgb(127,127,127)" stroke="rgb(127,127,127)" stroke-width="1" opacity="1" d="M 479.5 477 L 481 477.5 L 480.5 480 L 478 478.5 L 479.5 477 Z " /><path fill="rgb(127,127,127)" stroke="rgb(127,127,127)" stroke-width="1" opacity="1" d="M 477.5 481 L 476.5 483 L 477.5 481 Z " /><path fill="rgb(127,127,127)" stroke="rgb(127,127,127)" stroke-width="1" opacity="1" d="M 469.5 485 L 470.5 487 L 468 486.5 L 469.5 485 Z " /><path fill="rgb(127,127,127)" stroke="rgb(127,127,127)" stroke-width="1" opacity="1" d="M 449.5 496 L 451 496.5 L 450.5 499 L 447 497.5 L 449.5 496 Z " /><path fill="rgb(239,239,239)" stroke="rgb(239,239,239)" stroke-width="1" opacity="1" d="M 301.5 57 L 304 57.5 L 301.5 58 L 301.5 57 Z " /><path fill="rgb(239,239,239)" stroke="rgb(239,239,239)" stroke-width="1" opacity="1" d="M 272.5 62 L 275 62.5 L 272.5 63 L 272.5 62 Z " /><path fill="rgb(239,239,239)" stroke="rgb(239,239,239)" stroke-width="1" opacity="1" d="M 225.5 80 L 224.5 82 L 225.5 80 Z " /><path fill="rgb(239,239,239)" stroke="rgb(239,239,239)" stroke-width="1" opacity="1" d="M 219.5 85 L 215.5 90 L 219.5 85 Z " /><path fill="rgb(239,239,239)" stroke="rgb(239,239,239)" stroke-width="1" opacity="1" d="M 390.5 92 L 393.5 96 L 390.5 92 Z " /><path fill="rgb(239,239,239)" stroke="rgb(239,239,239)" stroke-width="1" opacity="1" d="M 206.5 96 L 204.5 99 L 206.5 96 Z " /><path fill="rgb(239,239,239)" stroke="rgb(239,239,239)" stroke-width="1" opacity="1" d="M 186.5 170 L 187 176.5 L 186 176.5 L 186.5 170 Z " /><path fill="rgb(239,239,239)" stroke="rgb(239,239,239)" stroke-width="1" opacity="1" d="M 189.5 203 L 190 207.5 L 189 207.5 L 189.5 203 Z " /><path fill="rgb(239,239,239)" stroke="rgb(239,239,239)" stroke-width="1" opacity="1" d="M 410.5 212 L 411 217.5 L 410 217.5 L 410.5 212 Z " /><path fill="rgb(239,239,239)" stroke="rgb(239,239,239)" stroke-width="1" opacity="1" d="M 207.5 284 L 211.5 289 L 207.5 284 Z " /><path fill="rgb(239,239,239)" stroke="rgb(239,239,239)" stroke-width="1" opacity="1" d="M 227.5 326 L 229 328.5 L 227 327.5 L 227.5 326 Z " /><path fill="rgb(239,239,239)" stroke="rgb(239,239,239)" stroke-width="1" opacity="1" d="M 372.5 329 L 372 330.5 L 371.5 332 L 371 330.5 L 372.5 329 Z " /><path fill="rgb(239,239,239)" stroke="rgb(239,239,239)" stroke-width="1" opacity="1" d="M 368.5 337 L 367.5 339 L 368.5 337 Z " /><path fill="rgb(239,239,239)" stroke="rgb(239,239,239)" stroke-width="1" opacity="1" d="M 239.5 352 L 240 355.5 L 239 355.5 L 239.5 352 Z " /><path fill="rgb(239,239,239)" stroke="rgb(239,239,239)" stroke-width="1" opacity="1" d="M 240.5 372 L 241 379.5 L 240 379.5 L 240.5 372 Z " /><path fill="rgb(239,239,239)" stroke="rgb(239,239,239)" stroke-width="1" opacity="1" d="M 231.5 418 L 232 420 L 230 419.5 L 231.5 418 Z " /><path fill="rgb(239,239,239)" stroke="rgb(239,239,239)" stroke-width="1" opacity="1" d="M 374.5 427 L 376.5 430 L 374.5 427 Z " /><path fill="rgb(239,239,239)" stroke="rgb(239,239,239)" stroke-width="1" opacity="1" d="M 181.5 502 L 185 502.5 L 181.5 503 L 181.5 502 Z " /><path fill="rgb(239,239,239)" stroke="rgb(239,239,239)" stroke-width="1" opacity="1" d="M 227.5 516 L 228.5 518 L 227.5 516 Z " /></svg>