<svg width="36" height="36" viewBox="0 0 36 36" fill="none" xmlns="http://www.w3.org/2000/svg">
<circle cx="18" cy="18" r="17.5714" fill="#FFFAF9"/>
<circle cx="18" cy="18" r="17.5714" fill="url(#paint0_linear_2288_872)" fill-opacity="0.28"/>
<circle cx="18" cy="18" r="17.5714" stroke="url(#paint1_linear_2288_872)" stroke-width="0.857143"/>
<path d="M23.3393 21.1727V19.6607H24.8512C25.0654 19.6607 25.2449 19.7332 25.3898 19.8781C25.5347 20.023 25.6071 20.2025 25.6071 20.4167C25.6071 20.6309 25.5347 20.8104 25.3898 20.9553C25.2449 21.1002 25.0654 21.1727 24.8512 21.1727H23.3393ZM23.3393 24.1965V22.6846H24.8512C25.0654 22.6846 25.2449 22.757 25.3898 22.9019C25.5347 23.0468 25.6071 23.2263 25.6071 23.4405C25.6071 23.6547 25.5347 23.8342 25.3898 23.9791C25.2449 24.124 25.0654 24.1965 24.8512 24.1965H23.3393ZM20.3155 24.9524C19.8997 24.9524 19.5438 24.8044 19.2477 24.5083C18.9516 24.2122 18.8036 23.8563 18.8036 23.4405H17.2917V20.4167H18.8036C18.8036 20.0009 18.9516 19.645 19.2477 19.3489C19.5438 19.0528 19.8997 18.9048 20.3155 18.9048H22.5833V24.9524H20.3155ZM15.0238 22.6846C14.1923 22.6846 13.4804 22.3885 12.8882 21.7963C12.2961 21.2042 12 20.4923 12 19.6607C12 18.8292 12.2961 18.1173 12.8882 17.5252C13.4804 16.933 14.1923 16.6369 15.0238 16.6369H16.1577C16.4727 16.6369 16.7405 16.5267 16.9609 16.3062C17.1814 16.0857 17.2917 15.818 17.2917 15.503C17.2917 15.188 17.1814 14.9203 16.9609 14.6998C16.7405 14.4793 16.4727 14.3691 16.1577 14.3691H13.5119C13.2977 14.3691 13.1182 14.2966 12.9733 14.1517C12.8284 14.0069 12.756 13.8273 12.756 13.6131C12.756 13.3989 12.8284 13.2194 12.9733 13.0745C13.1182 12.9296 13.2977 12.8572 13.5119 12.8572H16.1577C16.8885 12.8572 17.5122 13.1155 18.0287 13.632C18.5453 14.1486 18.8036 14.7723 18.8036 15.503C18.8036 16.2338 18.5453 16.8574 18.0287 17.374C17.5122 17.8906 16.8885 18.1488 16.1577 18.1488H15.0238C14.608 18.1488 14.2521 18.2969 13.956 18.593C13.6599 18.889 13.5119 19.245 13.5119 19.6607C13.5119 20.0765 13.6599 20.4325 13.956 20.7285C14.2521 21.0246 14.608 21.1727 15.0238 21.1727H16.5357V22.6846H15.0238Z" fill="#202939"/>
<defs>
<linearGradient id="paint0_linear_2288_872" x1="18" y1="0" x2="18" y2="36" gradientUnits="userSpaceOnUse">
<stop stop-color="white"/>
<stop offset="1" stop-color="white" stop-opacity="0"/>
</linearGradient>
<linearGradient id="paint1_linear_2288_872" x1="18" y1="0" x2="18" y2="36" gradientUnits="userSpaceOnUse">
<stop stop-color="#FFB1A2"/>
<stop offset="1" stop-color="#FEA08D"/>
</linearGradient>
</defs>
</svg>
