<svg width="36" height="36" viewBox="0 0 36 36" fill="none" xmlns="http://www.w3.org/2000/svg">
<circle cx="18" cy="18" r="17.5714" fill="#FFFAF9"/>
<circle cx="18" cy="18" r="17.5714" fill="url(#paint0_linear_2288_920)" fill-opacity="0.28"/>
<circle cx="18" cy="18" r="17.5714" stroke="url(#paint1_linear_2288_920)" stroke-width="0.857143"/>
<g clip-path="url(#clip0_2288_920)">
<path d="M24.9098 21.2079C24.8589 21.2079 24.8081 21.2103 24.7575 21.2149C24.5703 20.6686 24.1629 20.2353 23.6479 20.0085C23.6477 20.0074 23.6476 20.0063 23.6475 20.0052C23.5845 19.3272 23.6199 19.0265 23.7505 18.4672C23.9428 17.7004 24.4384 16.8737 24.9048 16.4279C25.0135 16.3228 24.8757 16.1492 24.7485 16.232C24.1081 16.6489 23.5766 17.3002 23.1912 17.9745C23.1893 17.9716 23.1876 17.9685 23.1856 17.9656C22.9533 17.6071 22.6177 17.269 22.2254 17.0358C22.1025 16.9628 21.9739 17.1239 22.0728 17.2274C22.41 17.5805 22.6271 18.0026 22.7161 18.4162C22.8142 18.9178 22.6891 19.2193 22.6794 19.3107C22.9572 19.3799 23.1956 19.583 23.2997 19.8634C23.43 20.2147 23.3285 20.6244 23.0162 20.8701L20.6882 22.7012C20.359 22.9603 19.8905 22.956 19.5651 22.6797C19.4893 22.7981 19.4297 22.9286 19.39 23.0685C19.333 23.2697 19.4845 23.4695 19.6932 23.4695H26.2252C26.3735 23.4695 26.5017 23.3662 26.5332 23.2212C26.7578 22.1862 25.9658 21.2079 24.9098 21.2079Z" fill="#303231"/>
<path d="M19.2426 15.6438C20.1023 15.6438 20.7993 14.9468 20.7993 14.0871C20.7993 13.2273 20.1023 12.5304 19.2426 12.5304C18.3829 12.5304 17.6859 13.2273 17.6859 14.0871C17.6859 14.9468 18.3829 15.6438 19.2426 15.6438Z" fill="#303231"/>
<path d="M22.4597 20.0023L19.4087 20.1374C19.29 20.1427 19.213 20.265 19.2595 20.3743L19.4577 20.839L18.9798 20.8469C18.9068 20.5784 18.7401 20.481 18.5288 20.3177L16.9424 19.091L17.2129 16.5026C17.2489 16.7648 17.4696 18.3723 17.4999 18.5933L18.5087 19.3733C20.3385 19.3976 19.7237 19.4053 21.2042 19.3397C21.443 19.2293 21.6105 18.9899 21.6142 18.7093C21.6195 18.3198 21.3079 17.9999 20.9184 17.9947L18.657 17.9646L18.165 17.1452C18.4023 16.7189 18.3167 16.1706 17.933 15.839L16.579 14.6691C16.1155 14.2685 15.4077 14.3477 15.0444 14.8418L12.2492 18.6451C11.7952 19.2629 11.8808 20.1239 12.4476 20.6402L13.6786 21.7615L10.2808 21.7381C10.2788 21.7381 10.2768 21.7381 10.2748 21.7381C9.81011 21.7381 9.43179 22.1131 9.42861 22.5786C9.42536 23.046 9.80167 23.4275 10.2691 23.4307L15.9079 23.4696C15.9098 23.4696 15.9118 23.4696 15.9138 23.4696C16.2635 23.4696 16.5775 23.2544 16.7034 22.9278C16.8301 22.5993 16.7401 22.2267 16.4776 21.9922L15.0827 20.7462L15.2803 20.5175L15.093 20.3727C14.7463 20.1047 14.6279 19.6502 14.7679 19.2588L15.81 16.3558L15.4987 19.3351C15.4733 19.578 15.5755 19.8169 15.7688 19.9663L17.8689 21.5901C18.1328 21.7943 18.4961 21.7821 18.7449 21.5797C19.0749 21.5743 18.8501 21.578 19.7664 21.563L19.9827 22.0703C20.0267 22.1734 20.1566 22.2066 20.2446 22.1373L22.5725 20.3061C22.7024 20.2041 22.6243 19.9948 22.4597 20.0023Z" fill="#303231"/>
</g>
<defs>
<linearGradient id="paint0_linear_2288_920" x1="18" y1="0" x2="18" y2="36" gradientUnits="userSpaceOnUse">
<stop stop-color="white"/>
<stop offset="1" stop-color="white" stop-opacity="0"/>
</linearGradient>
<linearGradient id="paint1_linear_2288_920" x1="18" y1="0" x2="18" y2="36" gradientUnits="userSpaceOnUse">
<stop stop-color="#FFB1A2"/>
<stop offset="1" stop-color="#FEA08D"/>
</linearGradient>
<clipPath id="clip0_2288_920">
<rect width="17.1429" height="17.1429" fill="white" transform="translate(9.42857 9.42859)"/>
</clipPath>
</defs>
</svg>
