<svg width="36" height="36" viewBox="0 0 36 36" fill="none" xmlns="http://www.w3.org/2000/svg">
<circle cx="18" cy="18" r="17.5714" fill="#FFFAF9"/>
<circle cx="18" cy="18" r="17.5714" fill="url(#paint0_linear_2288_885)" fill-opacity="0.28"/>
<circle cx="18" cy="18" r="17.5714" stroke="url(#paint1_linear_2288_885)" stroke-width="0.857143"/>
<g clip-path="url(#clip0_2288_885)">
<path d="M22.1625 25.2295C22.0875 25.2027 22.0179 25.1572 21.9536 25.0929L18.675 21.8143C18.6107 21.7501 18.5652 21.6804 18.5384 21.6054C18.5116 21.5304 18.4982 21.4501 18.4982 21.3643C18.4982 21.2786 18.5116 21.1983 18.5384 21.1233C18.5652 21.0483 18.6107 20.9786 18.675 20.9143L20.0411 19.5483C20.1054 19.484 20.175 19.4384 20.25 19.4117C20.325 19.3849 20.4054 19.3715 20.4911 19.3715C20.5768 19.3715 20.6571 19.3849 20.7321 19.4117C20.8071 19.4384 20.8768 19.484 20.9411 19.5483L24.2196 22.8268C24.2839 22.8911 24.3295 22.9608 24.3562 23.0358C24.383 23.1108 24.3964 23.1911 24.3964 23.2768C24.3964 23.3626 24.383 23.4429 24.3562 23.5179C24.3295 23.5929 24.2839 23.6626 24.2196 23.7268L22.8536 25.0929C22.7893 25.1572 22.7196 25.2027 22.6446 25.2295C22.5696 25.2563 22.4893 25.2697 22.4036 25.2697C22.3179 25.2697 22.2375 25.2563 22.1625 25.2295ZM22.4036 23.7429L22.8696 23.2768L20.5071 20.9143L20.0411 21.3804L22.4036 23.7429ZM13.3312 25.2376C13.2509 25.2054 13.1786 25.1572 13.1143 25.0929L11.7643 23.7429C11.7 23.6786 11.6518 23.6063 11.6196 23.5259C11.5875 23.4456 11.5714 23.3626 11.5714 23.2768C11.5714 23.1911 11.5875 23.1108 11.6196 23.0358C11.6518 22.9608 11.7 22.8911 11.7643 22.8268L15.1714 19.4197H16.5375L17.0839 18.8733L14.4321 16.2215H13.5161L11.5714 14.2768L13.3875 12.4608L15.3321 14.4054V15.3215L17.9839 17.9733L19.8482 16.109L19.1571 15.4179L20.0571 14.5179H18.2411L17.7911 14.0679L20.0732 11.7858L20.5232 12.2358V14.0518L21.4232 13.1518L23.7054 15.434C23.8875 15.6161 24.0268 15.8224 24.1232 16.0527C24.2196 16.2831 24.2679 16.5268 24.2679 16.784C24.2679 17.0411 24.2196 17.2876 24.1232 17.5233C24.0268 17.759 23.8875 17.9679 23.7054 18.1501L22.3393 16.784L21.4393 17.684L20.7643 17.009L17.4375 20.3358V21.6858L14.0304 25.0929C13.9661 25.1572 13.8964 25.2054 13.8214 25.2376C13.7464 25.2697 13.6661 25.2858 13.5804 25.2858C13.4946 25.2858 13.4116 25.2697 13.3312 25.2376ZM13.5804 23.7429L16.3125 21.0108V20.5447H15.8464L13.1143 23.2768L13.5804 23.7429ZM13.5804 23.7429L13.1143 23.2768L13.3554 23.5018L13.5804 23.7429Z" fill="#303231"/>
</g>
<defs>
<linearGradient id="paint0_linear_2288_885" x1="18" y1="0" x2="18" y2="36" gradientUnits="userSpaceOnUse">
<stop stop-color="white"/>
<stop offset="1" stop-color="white" stop-opacity="0"/>
</linearGradient>
<linearGradient id="paint1_linear_2288_885" x1="18" y1="0" x2="18" y2="36" gradientUnits="userSpaceOnUse">
<stop stop-color="#FFB1A2"/>
<stop offset="1" stop-color="#FEA08D"/>
</linearGradient>
<clipPath id="clip0_2288_885">
<rect width="15.4286" height="15.4286" fill="white" transform="translate(10.2857 11.1428)"/>
</clipPath>
</defs>
</svg>
