<svg width="36" height="36" viewBox="0 0 36 36" fill="none" xmlns="http://www.w3.org/2000/svg">
<circle cx="18" cy="18" r="17.5714" fill="#FFFAF9"/>
<circle cx="18" cy="18" r="17.5714" fill="url(#paint0_linear_2288_862)" fill-opacity="0.28"/>
<circle cx="18" cy="18" r="17.5714" stroke="url(#paint1_linear_2288_862)" stroke-width="0.857143"/>
<path d="M22.8206 16.0182L20.3478 13.5455L18.8571 15.0186L17.3665 13.5455L19.3482 11.5462C19.4885 11.4059 19.6463 11.3036 19.8217 11.2393C19.9971 11.175 20.1725 11.1428 20.3478 11.1428C20.5349 11.1428 20.7132 11.175 20.8827 11.2393C21.0522 11.3036 21.2013 11.4059 21.3299 11.5462L22.8206 13.0369C23.0311 13.2356 23.186 13.4665 23.2853 13.7296C23.3847 13.9927 23.4344 14.2586 23.4344 14.5275C23.4344 14.7965 23.3847 15.0595 23.2853 15.3167C23.186 15.574 23.0311 15.8078 22.8206 16.0182ZM13.1575 19.2451C12.947 19.0347 12.8418 18.7862 12.8418 18.4998C12.8418 18.2133 12.947 17.9649 13.1575 17.7544L14.8761 16.0182L16.3668 17.5089L14.6306 19.2451C14.4319 19.4556 14.1893 19.5608 13.9028 19.5608C13.6164 19.5608 13.3679 19.4556 13.1575 19.2451ZM12.4034 24.4537C12.2748 24.3134 12.1754 24.1585 12.1052 23.989C12.0351 23.8195 12 23.6412 12 23.4541C12 23.267 12.0322 23.0887 12.0965 22.9192C12.1608 22.7497 12.2631 22.5948 12.4034 22.4545L17.3665 17.5089L15.1392 15.2641C14.9288 15.0654 14.8235 14.8228 14.8235 14.5363C14.8235 14.2499 14.9288 14.0014 15.1392 13.791C15.338 13.5805 15.5835 13.4753 15.8758 13.4753C16.1681 13.4753 16.4194 13.5805 16.6299 13.791L18.8571 16.0182L19.8568 15.0186L21.821 17.0179C21.9613 17.1582 22.0314 17.3219 22.0314 17.5089C22.0314 17.696 21.9613 17.8597 21.821 18C21.6807 18.1403 21.517 18.2104 21.3299 18.2104C21.1429 18.2104 20.9792 18.1403 20.8389 18L14.3851 24.4537C14.2448 24.594 14.0899 24.6963 13.9204 24.7607C13.7508 24.825 13.5784 24.8571 13.403 24.8571C13.2276 24.8571 13.0522 24.822 12.8769 24.7519C12.7015 24.6817 12.5437 24.5824 12.4034 24.4537Z" fill="#303231"/>
<defs>
<linearGradient id="paint0_linear_2288_862" x1="18" y1="0" x2="18" y2="36" gradientUnits="userSpaceOnUse">
<stop stop-color="white"/>
<stop offset="1" stop-color="white" stop-opacity="0"/>
</linearGradient>
<linearGradient id="paint1_linear_2288_862" x1="18" y1="0" x2="18" y2="36" gradientUnits="userSpaceOnUse">
<stop stop-color="#FFB1A2"/>
<stop offset="1" stop-color="#FEA08D"/>
</linearGradient>
</defs>
</svg>
