<svg width="28" height="28" viewBox="0 0 28 28" fill="none" xmlns="http://www.w3.org/2000/svg">
<rect x="1" y="1" width="26" height="26" rx="13" stroke="white" stroke-width="2"/>
<path d="M19.425 17.9083L17.675 16.1583L18.4916 15.3416L20.2416 17.0916L19.425 17.9083ZM17.325 10.9083L16.5083 10.0916L18.2583 8.34163L19.075 9.15829L17.325 10.9083ZM10.675 10.9083L8.92497 9.15829L9.74163 8.34163L11.4916 10.0916L10.675 10.9083ZM8.57497 17.9083L7.7583 17.0916L9.5083 15.3416L10.325 16.1583L8.57497 17.9083ZM12.1625 16.8145L14 15.7062L15.8375 16.8291L15.3562 14.7291L16.975 13.3291L14.8458 13.1395L14 11.1562L13.1541 13.125L11.025 13.3145L12.6437 14.7291L12.1625 16.8145ZM10.3979 19.25L11.3458 15.152L8.16663 12.3958L12.3666 12.0312L14 8.16663L15.6333 12.0312L19.8333 12.3958L16.6541 15.152L17.6021 19.25L14 17.077L10.3979 19.25Z" fill="white"/>
</svg>
